<svg id="svg" xmlns="http://www.w3.org/2000/svg" xmlns:xlink="http://www.w3.org/1999/xlink" width="400" height="400" viewBox="0, 0, 400,400"><g id="svgg"><path id="path0" d="M131.463 25.531 C 130.892 26.162,130.861 26.584,131.240 28.631 C 132.325 34.486,130.350 39.026,125.700 41.366 C 124.057 42.193,123.777 44.838,125.249 45.626 C 126.720 46.414,132.170 45.951,133.269 44.945 C 133.781 44.477,134.793 43.794,135.517 43.428 C 136.242 43.061,137.018 42.275,137.243 41.681 C 137.467 41.086,138.093 40.136,138.634 39.569 C 139.975 38.163,140.395 34.115,139.437 31.825 C 137.222 26.529,133.336 23.461,131.463 25.531 M289.108 175.598 L 219.215 175.800 217.980 177.035 C 216.159 178.857,216.018 180.132,216.027 194.800 C 216.035 208.807,216.256 211.525,217.438 212.197 C 217.829 212.419,218.576 213.043,219.098 213.584 C 219.993 214.512,220.380 214.583,225.923 214.838 C 229.156 214.987,232.429 215.310,233.197 215.555 C 234.196 215.873,250.412 216.000,290.035 216.000 C 344.256 216.000,345.491 216.017,346.173 216.770 C 346.919 217.594,346.978 237.282,346.239 238.889 C 345.942 239.536,342.455 239.586,289.661 239.701 C 238.095 239.814,233.266 239.880,231.800 240.494 C 230.603 240.996,228.941 241.170,225.200 241.184 C 216.115 241.219,216.239 240.984,216.067 258.382 C 215.920 273.262,216.110 276.530,217.176 277.536 C 219.086 279.335,220.545 280.404,221.141 280.440 C 221.504 280.462,224.140 280.660,227.000 280.881 C 229.979 281.111,256.361 281.352,288.773 281.445 C 341.695 281.598,345.395 281.653,346.110 282.300 C 347.081 283.178,347.048 303.739,346.074 304.911 C 345.599 305.483,339.486 305.557,283.074 305.672 L 220.600 305.800 218.757 306.708 C 215.411 308.357,215.400 308.425,215.400 326.859 C 215.400 348.723,213.008 346.526,237.128 346.812 C 252.867 346.998,255.185 347.106,256.549 347.712 C 257.992 348.353,262.255 348.400,318.849 348.400 L 379.600 348.400 379.600 346.824 C 379.600 345.292,379.642 345.245,381.100 345.124 L 382.600 345.000 382.714 340.667 L 382.828 336.333 381.161 334.854 L 379.495 333.376 379.572 323.460 C 379.703 306.499,379.058 305.618,366.514 305.603 C 362.687 305.599,362.801 305.914,362.796 295.326 C 362.792 288.824,362.642 286.108,362.206 284.671 C 361.208 281.383,362.183 280.800,368.682 280.799 C 374.454 280.797,375.752 280.352,377.081 277.918 C 378.044 276.153,378.387 248.711,377.499 244.400 L 376.964 241.800 374.382 241.319 C 372.962 241.054,370.033 240.829,367.874 240.819 C 361.502 240.788,361.605 241.018,361.602 226.900 C 361.600 216.425,361.772 215.360,363.500 215.166 C 363.665 215.148,366.073 215.078,368.852 215.011 C 378.037 214.791,377.762 215.367,377.915 196.000 C 378.002 185.077,377.897 180.751,377.502 178.823 L 376.973 176.245 374.987 175.730 C 373.655 175.385,370.690 175.245,366.000 175.305 C 362.150 175.355,327.548 175.487,289.108 175.598 M267.811 189.344 C 274.860 192.742,273.378 200.173,265.486 201.000 C 259.150 201.664,235.489 201.046,233.800 200.173 C 229.464 197.930,229.648 192.051,234.128 189.696 C 237.267 188.046,236.890 188.082,251.411 188.040 L 265.023 188.000 267.811 189.344 M297.787 189.336 C 299.351 190.169,300.369 191.019,300.741 191.803 C 301.054 192.462,301.545 193.493,301.833 194.095 C 302.510 195.510,300.474 199.451,298.584 200.385 C 294.815 202.246,283.213 201.086,281.433 198.670 C 280.271 197.095,280.265 192.352,281.423 191.210 C 284.939 187.741,293.048 186.812,297.787 189.336 M359.399 189.413 C 364.365 191.769,364.760 198.205,360.069 200.333 C 357.887 201.324,317.860 201.565,314.567 200.608 C 312.454 199.993,309.577 196.792,309.609 195.092 C 309.642 193.372,311.897 190.549,314.200 189.346 L 316.600 188.092 336.511 188.046 L 356.423 188.000 359.399 189.413 M266.896 254.604 C 274.548 257.670,274.141 264.846,266.215 266.610 C 261.889 267.572,237.535 267.295,234.751 266.252 C 228.083 263.754,229.663 256.258,237.325 254.041 C 240.631 253.084,264.225 253.533,266.896 254.604 M295.811 254.143 C 296.245 254.442,297.261 254.901,298.068 255.164 C 299.851 255.743,300.328 256.285,301.382 258.931 L 302.200 260.981 301.021 263.302 C 299.178 266.932,290.509 268.385,284.001 266.154 C 279.093 264.472,279.077 257.432,283.975 255.104 C 287.194 253.574,294.162 253.008,295.811 254.143 M359.656 255.111 C 362.562 256.787,362.811 257.121,363.061 259.672 C 363.755 266.760,362.130 267.206,335.800 267.165 C 313.667 267.130,313.562 267.115,311.126 263.600 C 308.768 260.198,309.878 257.327,314.463 254.967 L 317.000 253.660 337.200 253.735 L 357.400 253.809 359.656 255.111 M266.698 320.363 C 271.255 322.028,272.071 322.946,272.124 326.466 C 272.161 328.916,271.234 330.259,268.579 331.600 L 266.600 332.600 251.400 332.600 L 236.200 332.600 233.945 331.543 C 228.810 329.135,229.527 322.921,235.200 320.659 L 237.800 319.623 251.206 319.611 C 263.414 319.601,264.798 319.668,266.698 320.363 M297.673 320.743 C 300.086 321.826,300.272 322.009,301.215 324.243 L 302.209 326.600 301.005 328.981 C 299.846 331.271,299.708 331.391,297.400 332.102 C 292.426 333.635,282.833 332.442,281.298 330.100 C 280.417 328.755,280.387 324.075,281.252 322.773 C 283.323 319.653,292.668 318.497,297.673 320.743 M358.912 320.634 C 362.640 322.183,363.000 322.667,363.000 326.129 C 363.000 329.831,362.370 330.868,359.515 331.863 C 356.589 332.883,316.858 333.003,314.224 332.000 C 312.185 331.223,309.455 327.518,309.818 326.019 C 310.207 324.414,312.130 321.863,313.408 321.255 C 314.064 320.943,315.050 320.459,315.600 320.180 C 316.365 319.792,321.282 319.665,336.512 319.637 L 356.424 319.600 358.912 320.634 " stroke="none" fill="#0895f9" fill-rule="evenodd"></path><path id="path1" d="M8.072 0.900 C 8.142 1.395,8.335 1.755,8.500 1.700 C 8.665 1.645,9.430 1.600,10.200 1.600 C 11.333 1.600,11.600 1.448,11.600 0.800 C 11.600 0.117,11.333 0.000,9.772 0.000 C 8.105 0.000,7.956 0.079,8.072 0.900 M4.253 3.411 C 3.860 3.698,3.477 4.263,3.400 4.666 C 3.324 5.070,3.247 5.467,3.231 5.549 C 3.214 5.631,2.951 5.491,2.647 5.239 C 2.222 4.886,2.042 4.912,1.874 5.350 C 1.719 5.756,2.081 6.004,3.128 6.206 C 4.428 6.457,4.500 6.528,3.741 6.817 C 2.315 7.360,2.226 8.000,3.576 8.000 C 4.762 8.000,4.800 7.944,4.800 6.176 C 4.800 4.824,4.929 4.430,5.300 4.653 C 5.673 4.877,5.667 4.790,5.279 4.310 C 4.838 3.767,4.869 3.644,5.479 3.522 C 6.083 3.400,6.100 3.337,5.583 3.133 C 5.244 2.999,4.645 3.124,4.253 3.411 M0.000 10.200 C 0.000 12.903,1.353 13.524,1.820 11.035 C 2.158 9.232,1.733 8.000,0.773 8.000 C 0.103 8.000,0.000 8.292,0.000 10.200 M84.200 22.439 C 83.320 22.614,81.160 23.387,79.400 24.156 C 76.202 25.555,75.851 25.868,72.904 29.982 C 71.825 31.486,71.892 38.198,73.000 39.759 C 73.440 40.379,74.160 41.458,74.600 42.158 C 77.939 47.467,85.729 49.141,89.931 45.453 C 90.739 44.744,91.878 43.863,92.463 43.497 C 93.163 43.058,93.760 42.108,94.212 40.715 C 94.590 39.552,95.252 38.014,95.684 37.297 C 96.544 35.869,96.400 33.382,95.365 31.802 C 95.071 31.354,94.547 30.182,94.200 29.199 C 93.430 27.016,91.924 25.349,89.800 24.325 C 88.920 23.901,87.660 23.231,87.000 22.837 C 86.069 22.280,85.442 22.191,84.200 22.439 M36.032 26.033 C 32.728 26.462,32.488 26.569,32.331 27.676 C 32.250 28.245,31.718 28.830,30.943 29.200 C 28.249 30.486,28.425 39.319,31.163 40.188 C 31.579 40.320,32.032 40.871,32.167 41.412 C 32.323 42.031,32.918 42.606,33.775 42.964 C 34.523 43.276,35.324 43.883,35.553 44.313 C 36.516 46.112,41.192 45.476,42.494 43.368 C 42.656 43.106,43.408 42.775,44.165 42.633 C 45.294 42.421,45.591 42.152,45.814 41.136 C 46.004 40.272,46.429 39.768,47.224 39.468 C 49.525 38.600,49.399 32.457,47.031 30.032 C 46.138 29.118,45.600 28.178,45.600 27.535 C 45.600 26.593,45.418 26.479,43.500 26.221 C 39.783 25.721,38.649 25.693,36.032 26.033 M-0.000 176.300 L 0.000 283.200 115.100 283.137 C 178.405 283.102,227.499 282.948,224.197 282.795 C 214.109 282.326,214.673 283.541,214.491 261.866 C 214.298 238.861,214.111 239.232,225.881 239.208 L 229.962 239.200 230.379 237.700 C 231.007 235.440,230.936 217.411,230.297 216.881 C 230.019 216.650,227.263 216.405,224.125 216.332 C 217.962 216.189,217.311 215.973,215.425 213.446 C 214.323 211.971,214.120 178.759,215.200 176.600 C 216.713 173.574,210.569 173.824,288.800 173.600 C 345.926 173.436,358.818 173.303,359.800 172.864 C 362.154 171.813,369.951 171.762,372.218 172.782 C 373.308 173.273,375.069 173.939,376.131 174.262 C 377.765 174.759,378.151 175.076,378.645 176.325 C 378.966 177.136,379.627 178.610,380.114 179.600 C 380.965 181.329,381.005 181.915,381.120 194.422 C 381.236 207.019,381.148 208.250,380.013 210.000 C 379.798 210.330,379.212 211.680,378.710 213.000 C 377.537 216.082,376.819 216.347,369.580 216.377 C 365.925 216.393,364.004 216.556,363.680 216.880 C 363.042 217.518,363.007 234.926,363.639 236.740 L 364.078 238.000 367.259 238.000 C 369.154 238.000,370.877 238.221,371.520 238.546 C 372.114 238.847,373.590 239.319,374.800 239.596 C 377.027 240.105,378.800 241.294,378.800 242.277 C 378.800 242.573,379.295 243.756,379.900 244.907 L 381.000 247.000 381.121 260.154 L 381.241 273.307 380.260 275.354 C 378.551 278.917,378.327 279.757,378.772 280.926 L 379.180 282.000 387.131 282.000 C 391.505 282.000,396.189 282.116,397.541 282.257 L 400.000 282.514 400.000 176.707 L 400.000 70.900 398.750 70.650 C 398.063 70.513,392.599 70.400,386.610 70.400 C 380.393 70.400,375.222 70.228,374.560 70.000 C 373.795 69.737,309.800 69.566,186.700 69.500 L -0.000 69.400 -0.000 176.300 M49.390 97.590 C 51.214 99.304,51.541 102.926,50.124 105.724 C 49.811 106.342,46.685 109.756,43.177 113.310 C 39.670 116.864,36.800 120.005,36.800 120.290 C 36.800 121.116,38.450 124.400,38.865 124.400 C 39.072 124.400,40.357 125.599,41.720 127.064 C 43.084 128.530,44.623 130.105,45.140 130.564 C 45.658 131.024,46.378 131.746,46.740 132.169 C 47.103 132.591,47.979 133.491,48.687 134.169 C 52.362 137.684,51.759 143.069,47.480 144.946 L 45.400 145.858 43.058 144.697 C 40.805 143.580,27.229 130.671,23.089 125.708 C 21.393 123.676,20.865 121.010,21.644 118.410 C 22.292 116.249,40.794 97.472,42.918 96.820 C 44.925 96.203,48.347 96.611,49.390 97.590 M80.000 97.543 C 82.334 99.266,82.367 106.676,80.054 109.924 C 79.606 110.553,78.870 112.403,78.419 114.034 C 77.968 115.665,77.249 117.474,76.823 118.052 C 76.396 118.631,75.753 120.251,75.394 121.652 C 75.035 123.054,74.321 124.922,73.809 125.805 C 73.297 126.688,72.572 128.488,72.198 129.805 C 71.824 131.122,71.103 132.924,70.595 133.810 C 70.087 134.695,69.398 136.467,69.064 137.748 C 66.343 148.167,55.426 148.442,56.100 138.074 C 56.265 135.537,56.553 134.523,57.750 132.271 C 58.547 130.770,59.200 129.123,59.200 128.612 C 59.200 128.100,59.741 126.653,60.401 125.397 C 61.062 124.141,61.891 122.098,62.242 120.857 C 62.594 119.616,63.299 117.873,63.808 116.985 C 64.317 116.097,65.028 114.207,65.388 112.785 C 65.748 111.363,66.378 109.733,66.787 109.163 C 67.196 108.592,67.983 106.655,68.535 104.857 C 69.087 103.059,69.958 101.054,70.469 100.401 C 70.981 99.748,71.809 98.682,72.309 98.032 C 73.672 96.262,77.900 95.993,80.000 97.543 M94.200 97.154 C 95.244 97.635,99.082 101.219,105.243 107.466 C 119.222 121.641,119.264 120.121,104.481 135.001 C 93.138 146.420,91.152 147.385,86.954 143.514 C 83.260 140.110,84.286 137.709,93.297 128.675 C 96.379 125.585,99.157 122.442,99.471 121.692 C 100.128 120.119,100.154 120.153,91.989 112.003 C 84.497 104.525,83.454 102.267,86.061 99.170 C 88.547 96.216,90.898 95.634,94.200 97.154 M156.527 114.762 C 159.625 116.529,160.465 119.154,159.032 122.586 C 157.921 125.244,157.205 125.386,144.200 125.518 C 128.791 125.674,127.799 125.318,127.801 119.629 C 127.803 116.160,128.557 115.340,133.400 113.546 C 133.840 113.383,138.700 113.291,144.200 113.342 L 154.200 113.435 156.527 114.762 M306.221 114.482 C 310.735 116.896,311.271 123.092,307.119 124.844 C 304.798 125.823,175.872 125.658,174.068 124.673 C 169.225 122.030,171.411 115.140,177.600 113.547 C 178.150 113.406,206.860 113.315,241.400 113.345 L 304.200 113.400 306.221 114.482 M179.029 140.986 C 180.969 141.797,182.193 144.516,181.801 147.145 C 181.470 149.368,181.255 149.655,178.589 151.425 L 176.517 152.800 154.713 152.800 C 134.070 152.800,132.857 152.760,131.954 152.057 C 131.429 151.648,130.435 151.023,129.743 150.669 C 126.584 149.049,127.114 142.469,130.523 140.987 C 132.471 140.140,177.002 140.139,179.029 140.986 M217.592 141.392 C 220.849 144.342,220.170 149.325,216.206 151.562 L 213.918 152.853 204.857 152.727 L 195.797 152.600 193.299 150.677 L 190.800 148.753 190.800 146.641 C 190.800 144.360,191.948 142.350,194.000 141.040 C 195.670 139.973,216.367 140.282,217.592 141.392 M287.606 141.141 C 289.890 142.354,290.903 144.199,290.697 146.768 C 290.514 149.043,290.617 148.904,287.127 151.600 L 285.832 152.600 259.416 152.600 L 233.000 152.600 230.750 151.120 C 228.178 149.427,228.000 149.111,228.000 146.221 C 228.000 143.865,228.820 142.464,230.965 141.156 C 232.866 139.997,285.426 139.982,287.606 141.141 M72.119 169.340 C 76.989 171.375,77.526 178.498,72.984 180.800 C 71.070 181.770,29.932 181.691,28.148 180.714 C 23.570 178.208,23.430 172.978,27.862 170.042 L 29.737 168.800 50.281 168.800 C 66.631 168.800,71.090 168.910,72.119 169.340 M165.719 169.340 C 171.317 171.679,170.881 179.979,165.097 181.180 C 161.231 181.982,92.508 181.571,91.000 180.736 C 85.716 177.811,85.891 172.894,91.398 169.536 C 92.994 168.562,163.413 168.377,165.719 169.340 M50.089 195.718 C 55.298 199.115,53.993 205.289,47.824 206.429 C 44.063 207.125,29.311 206.762,27.799 205.937 C 24.583 204.183,23.449 198.727,25.904 196.826 C 29.273 194.217,30.145 194.049,39.800 194.146 L 47.800 194.226 50.089 195.718 M122.521 195.346 C 126.735 197.860,127.011 203.995,123.000 206.000 C 121.319 206.840,68.500 206.908,66.600 206.072 C 62.018 204.056,61.537 199.183,65.624 196.182 C 68.572 194.018,67.939 194.062,95.400 194.134 L 120.600 194.200 122.521 195.346 M154.000 194.919 C 159.636 197.788,160.253 203.493,155.200 206.017 C 152.421 207.405,140.429 206.869,138.667 205.278 C 136.614 203.424,136.295 198.536,138.123 196.922 C 141.433 193.999,150.055 192.912,154.000 194.919 M194.070 195.576 C 198.304 198.141,198.436 203.635,194.318 205.879 C 192.868 206.669,177.794 207.163,172.400 206.598 C 166.219 205.950,164.035 200.103,168.615 196.466 C 171.531 194.152,172.289 194.025,182.600 194.117 L 191.800 194.200 194.070 195.576 M62.399 220.231 C 68.662 223.147,68.467 230.250,62.086 231.619 C 58.222 232.448,29.333 231.949,27.513 231.022 C 23.505 228.980,23.622 223.056,27.714 220.900 C 30.714 219.320,30.827 219.310,46.200 219.257 L 60.200 219.208 62.399 220.231 M122.307 220.524 C 126.281 222.646,127.122 227.172,124.150 230.455 C 122.584 232.185,80.807 232.799,77.162 231.145 C 73.318 229.401,73.433 222.947,77.345 220.884 C 80.347 219.301,80.499 219.291,101.200 219.348 L 120.200 219.400 122.307 220.524 M196.487 220.976 C 201.183 223.729,201.234 228.222,196.600 231.064 C 194.927 232.090,140.543 232.218,138.734 231.200 C 133.704 228.369,134.421 222.995,140.200 220.211 L 142.200 219.248 168.000 219.324 L 193.800 219.400 196.487 220.976 M366.517 283.097 C 368.011 283.174,370.351 283.174,371.717 283.096 C 373.082 283.018,371.860 282.955,369.000 282.955 C 366.140 282.956,365.022 283.020,366.517 283.097 " stroke="none" fill="#f8d96d" fill-rule="evenodd"></path><path id="path2" d="M395.200 3.600 C 395.200 4.667,395.333 4.800,396.400 4.800 C 397.798 4.800,397.919 4.319,396.800 3.200 C 395.681 2.081,395.200 2.202,395.200 3.600 M127.600 23.435 C 126.830 23.787,125.342 24.336,124.293 24.655 C 116.743 26.951,115.264 37.640,121.604 44.081 C 124.104 46.620,124.741 46.610,124.494 44.035 C 124.311 42.132,124.348 42.048,125.652 41.391 C 130.346 39.026,132.329 34.509,131.244 28.652 C 130.829 26.411,130.856 26.249,131.827 25.095 C 132.387 24.429,132.700 23.740,132.523 23.563 C 131.828 22.869,128.997 22.796,127.600 23.435 M138.627 29.157 C 138.482 29.392,138.592 29.992,138.873 30.492 L 139.382 31.400 139.525 30.454 C 139.686 29.389,139.050 28.472,138.627 29.157 M220.049 175.201 C 215.794 176.206,215.667 176.768,215.630 194.840 C 215.596 211.691,215.593 211.664,218.294 213.768 L 220.131 215.200 225.084 215.200 C 229.853 215.200,230.074 215.238,231.052 216.216 L 232.067 217.231 231.934 227.974 C 231.768 241.269,232.335 240.207,225.254 240.494 C 215.273 240.899,215.535 240.333,215.687 261.159 C 215.796 276.252,215.826 276.778,216.637 277.871 C 218.019 279.736,219.923 280.806,221.759 280.750 L 223.400 280.700 221.738 280.428 C 220.823 280.279,219.590 279.716,218.997 279.178 C 218.404 278.640,217.593 277.901,217.195 277.536 C 216.107 276.537,215.919 273.352,216.067 258.382 C 216.239 240.984,216.115 241.219,225.200 241.184 C 228.941 241.170,230.603 240.996,231.800 240.494 C 233.266 239.880,238.095 239.814,289.661 239.701 C 342.455 239.586,345.942 239.536,346.239 238.889 C 346.978 237.282,346.919 217.594,346.173 216.770 C 345.491 216.017,344.256 216.000,290.035 216.000 C 250.412 216.000,234.196 215.873,233.197 215.555 C 232.429 215.310,229.156 214.987,225.923 214.838 C 220.380 214.583,219.993 214.512,219.098 213.584 C 218.576 213.043,217.829 212.419,217.438 212.197 C 216.256 211.525,216.035 208.807,216.027 194.800 C 216.018 179.791,216.141 178.766,218.173 176.900 L 219.588 175.600 288.894 175.550 C 327.012 175.523,359.460 175.371,361.000 175.213 C 362.540 175.055,331.760 174.916,292.600 174.904 C 253.440 174.892,220.792 175.025,220.049 175.201 M237.000 188.343 C 231.453 190.172,229.378 193.806,231.501 197.973 C 232.972 200.860,233.665 200.984,249.200 201.130 C 264.857 201.278,267.417 201.117,269.249 199.870 C 273.952 196.668,273.314 191.996,267.811 189.344 L 265.023 188.000 251.411 188.040 C 243.925 188.062,237.440 188.198,237.000 188.343 M284.400 189.256 C 278.970 192.186,278.875 198.586,284.233 200.504 C 286.759 201.409,296.678 201.326,298.584 200.385 C 300.474 199.451,302.510 195.510,301.833 194.095 C 301.545 193.493,301.054 192.462,300.741 191.803 C 298.995 188.126,289.298 186.614,284.400 189.256 M314.200 189.346 C 308.415 192.369,308.627 198.881,314.567 200.608 C 317.860 201.565,357.887 201.324,360.069 200.333 C 364.760 198.205,364.365 191.769,359.399 189.413 L 356.423 188.000 336.511 188.046 L 316.600 188.092 314.200 189.346 M267.677 193.700 C 267.745 194.635,267.628 196.075,267.417 196.900 L 267.035 198.400 251.317 198.400 L 235.600 198.400 235.600 197.429 C 235.600 196.894,235.319 196.176,234.975 195.832 C 234.408 195.265,234.408 195.124,234.975 194.314 C 235.319 193.824,235.600 193.102,235.600 192.711 C 235.600 192.042,236.533 192.000,251.577 192.000 L 267.554 192.000 267.677 193.700 M298.456 193.300 C 298.684 195.357,298.418 196.302,297.548 196.530 C 297.104 196.646,296.643 197.114,296.524 197.570 C 296.318 198.357,296.034 198.400,290.985 198.400 L 285.664 198.400 285.396 197.183 C 285.191 196.250,284.857 195.911,283.964 195.733 C 282.498 195.440,282.504 195.169,284.000 194.063 C 284.660 193.575,285.200 192.911,285.200 192.588 C 285.200 192.095,286.254 192.000,291.756 192.000 L 298.312 192.000 298.456 193.300 M358.568 193.014 C 358.708 193.571,359.267 194.230,359.811 194.478 C 361.108 195.069,361.061 195.448,359.654 195.729 C 358.773 195.905,358.452 196.240,358.264 197.179 L 358.020 198.400 337.179 198.400 L 316.338 198.400 315.169 197.231 C 314.184 196.246,314.000 195.742,314.000 194.031 L 314.000 192.000 336.157 192.000 L 358.313 192.000 358.568 193.014 M362.400 216.000 C 361.642 216.758,361.600 217.332,361.602 226.900 C 361.605 237.563,361.871 239.689,363.303 240.455 L 364.170 240.919 363.388 239.760 C 362.274 238.108,361.924 218.482,362.972 216.454 C 363.720 215.007,363.537 214.863,362.400 216.000 M237.325 254.041 C 229.663 256.258,228.083 263.754,234.751 266.252 C 237.535 267.295,261.889 267.572,266.215 266.610 C 274.141 264.846,274.548 257.670,266.896 254.604 C 264.225 253.533,240.631 253.084,237.325 254.041 M287.000 253.971 C 282.473 254.972,280.649 256.790,280.631 260.317 C 280.604 265.618,282.541 266.880,290.800 266.942 C 297.646 266.993,299.479 266.340,301.021 263.302 L 302.200 260.981 301.382 258.931 C 300.328 256.285,299.851 255.743,298.068 255.164 C 297.261 254.901,296.245 254.442,295.811 254.143 C 294.981 253.571,289.306 253.461,287.000 253.971 M314.463 254.967 C 309.878 257.327,308.768 260.198,311.126 263.600 C 313.562 267.115,313.667 267.130,335.800 267.165 C 362.130 267.206,363.755 266.760,363.061 259.672 C 362.811 257.121,362.562 256.787,359.656 255.111 L 357.400 253.809 337.200 253.735 L 317.000 253.660 314.463 254.967 M267.375 260.692 C 267.361 262.282,267.254 263.679,267.138 263.796 C 266.974 263.959,248.280 264.093,237.100 264.011 C 235.699 264.001,235.600 263.920,235.600 262.787 C 235.600 262.084,235.351 261.479,235.006 261.347 C 234.480 261.145,234.480 261.021,235.006 260.270 C 235.333 259.804,235.600 259.010,235.600 258.506 L 235.600 257.591 251.500 257.695 L 267.400 257.800 267.375 260.692 M298.492 259.300 C 298.712 261.428,298.592 261.762,297.379 262.411 C 296.840 262.699,296.400 263.160,296.400 263.436 C 296.400 264.268,293.952 264.419,286.543 264.043 C 285.976 264.015,285.600 263.654,285.429 262.974 C 285.264 262.317,284.746 261.800,283.986 261.535 C 282.624 261.060,282.442 260.419,283.585 260.120 C 284.017 260.007,284.601 259.394,284.883 258.757 L 285.395 257.600 291.856 257.600 L 298.316 257.600 298.492 259.300 M358.689 258.831 C 358.945 259.509,359.525 260.160,359.977 260.278 C 361.062 260.562,361.027 261.112,359.913 261.272 C 359.214 261.373,358.259 262.541,357.762 263.905 C 357.741 263.963,348.263 264.025,336.700 264.043 C 312.256 264.083,314.000 264.393,314.000 260.000 L 314.000 257.600 336.112 257.600 L 358.225 257.600 358.689 258.831 M230.728 281.640 C 231.678 282.631,232.101 297.814,231.342 303.700 L 231.097 305.600 288.299 305.600 C 341.007 305.600,345.545 305.548,346.051 304.939 C 347.046 303.741,347.100 283.195,346.110 282.300 C 345.395 281.652,341.727 281.600,288.773 281.484 C 257.658 281.415,231.660 281.205,231.000 281.016 L 229.800 280.672 230.728 281.640 M362.298 281.982 C 361.722 282.803,361.798 284.800,362.405 284.800 C 362.684 284.800,363.207 281.579,362.977 281.274 C 362.924 281.205,362.619 281.523,362.298 281.982 M235.200 320.659 C 229.527 322.921,228.810 329.135,233.945 331.543 L 236.200 332.600 251.400 332.600 L 266.600 332.600 268.579 331.600 C 272.783 329.476,273.667 324.143,270.172 321.983 C 266.473 319.697,265.691 319.599,251.206 319.611 L 237.800 319.623 235.200 320.659 M284.434 320.738 C 281.181 322.141,280.635 322.954,280.635 326.395 C 280.635 331.184,282.437 332.339,290.400 332.658 C 297.276 332.933,299.374 332.206,301.005 328.981 L 302.209 326.600 301.215 324.243 C 299.298 319.701,290.901 317.947,284.434 320.738 M315.600 320.180 C 315.050 320.459,314.064 320.943,313.408 321.255 C 312.130 321.863,310.207 324.414,309.818 326.019 C 309.455 327.518,312.185 331.223,314.224 332.000 C 316.858 333.003,356.589 332.883,359.515 331.863 C 362.370 330.868,363.000 329.831,363.000 326.129 C 363.000 322.667,362.640 322.183,358.912 320.634 L 356.424 319.600 336.512 319.637 C 321.282 319.665,316.365 319.792,315.600 320.180 M267.608 325.000 C 268.272 330.095,268.631 329.990,250.533 329.996 C 235.850 330.000,235.600 329.977,235.600 328.606 C 235.600 328.107,235.333 327.477,235.007 327.206 C 234.484 326.772,234.484 326.616,235.007 325.868 C 235.333 325.403,235.600 324.610,235.600 324.106 L 235.600 323.191 251.500 323.295 L 267.400 323.400 267.608 325.000 M298.447 324.700 C 298.523 327.091,298.436 327.329,296.986 328.700 L 295.612 330.000 290.828 330.000 L 286.044 330.000 285.518 328.904 C 285.229 328.301,284.499 327.571,283.896 327.282 C 282.532 326.628,282.503 326.093,283.807 325.597 C 284.361 325.387,284.987 324.761,285.197 324.207 L 285.580 323.200 291.990 323.200 L 298.400 323.200 298.447 324.700 M358.431 324.316 C 358.671 325.005,359.314 325.633,360.110 325.956 L 361.400 326.480 360.130 326.844 C 359.168 327.119,358.746 327.551,358.393 328.620 L 357.927 330.033 336.664 329.916 C 312.219 329.783,314.000 330.078,314.000 326.157 L 314.000 323.200 336.021 323.200 L 358.042 323.200 358.431 324.316 M109.784 366.427 C 109.639 366.661,109.616 366.949,109.733 367.067 C 110.020 367.353,110.800 366.848,110.800 366.376 C 110.800 365.865,110.109 365.899,109.784 366.427 M103.500 371.232 C 103.115 371.456,102.521 372.216,102.180 372.920 L 101.560 374.200 102.409 373.200 C 102.876 372.650,103.650 371.889,104.129 371.509 C 105.072 370.760,104.638 370.569,103.500 371.232 " stroke="none" fill="#86d8f3" fill-rule="evenodd"></path><path id="path3" d="M132.631 23.902 C 132.139 24.394,132.459 24.691,134.039 25.213 C 134.941 25.511,135.976 26.178,136.339 26.696 C 137.869 28.876,138.346 29.385,138.614 29.118 C 139.335 28.400,136.824 25.317,134.850 24.496 C 133.757 24.042,132.759 23.775,132.631 23.902 M139.536 30.436 C 139.425 31.006,139.495 31.903,139.689 32.429 C 140.076 33.476,139.856 39.077,139.411 39.523 C 139.258 39.675,138.923 39.800,138.667 39.800 C 138.410 39.800,137.868 40.480,137.462 41.311 C 136.994 42.270,136.161 43.110,135.189 43.606 C 133.537 44.448,132.830 45.196,133.676 45.206 C 134.079 45.211,134.070 45.295,133.637 45.569 C 133.327 45.765,131.257 45.930,129.037 45.935 C 123.296 45.950,123.164 45.970,124.800 46.600 C 127.731 47.729,132.496 47.201,134.249 45.554 C 134.756 45.078,135.568 44.489,136.054 44.244 C 137.056 43.740,139.317 40.837,140.206 38.913 C 140.940 37.323,140.967 32.274,140.250 30.600 L 139.736 29.400 139.536 30.436 M43.329 97.878 C 42.850 97.972,41.986 98.667,41.409 99.424 C 40.832 100.181,40.092 100.800,39.766 100.800 C 39.440 100.800,38.818 101.402,38.384 102.137 C 37.950 102.872,37.155 103.674,36.617 103.919 C 36.079 104.165,35.362 104.900,35.024 105.554 C 34.685 106.208,34.045 106.859,33.600 107.000 C 33.155 107.141,32.520 107.781,32.189 108.422 C 31.858 109.062,31.085 109.846,30.471 110.163 C 29.858 110.480,29.149 111.195,28.895 111.751 C 28.642 112.307,27.922 113.027,27.295 113.351 C 26.669 113.675,25.943 114.406,25.684 114.976 C 25.424 115.546,24.777 116.210,24.245 116.452 C 22.129 117.416,21.827 122.799,23.778 124.758 C 24.350 125.331,28.634 129.655,33.298 134.366 C 42.453 143.612,43.272 144.182,46.740 143.717 C 50.268 143.244,50.965 137.441,47.785 135.016 C 47.053 134.458,46.337 133.630,46.193 133.177 C 46.049 132.725,45.497 132.189,44.966 131.987 C 44.435 131.785,43.657 131.055,43.237 130.365 C 42.818 129.675,42.056 128.902,41.545 128.648 C 41.034 128.393,40.407 127.766,40.152 127.255 C 39.898 126.744,39.134 125.988,38.455 125.575 C 37.776 125.162,36.974 124.234,36.672 123.512 C 36.371 122.791,35.826 121.953,35.462 121.651 C 34.089 120.512,34.009 120.617,43.566 110.979 C 48.899 105.601,49.353 105.026,49.610 103.334 C 50.312 98.711,48.250 96.921,43.329 97.878 M74.151 97.876 C 73.622 97.979,73.019 98.670,72.551 99.709 C 72.138 100.626,71.407 101.843,70.926 102.415 C 70.445 102.987,69.762 104.702,69.409 106.227 C 69.056 107.752,68.327 109.636,67.789 110.414 C 67.251 111.191,66.507 113.081,66.136 114.614 C 65.765 116.146,65.065 117.882,64.581 118.471 C 64.096 119.061,63.417 120.793,63.072 122.320 C 62.727 123.848,61.996 125.760,61.447 126.569 C 60.898 127.378,60.240 129.066,59.986 130.320 C 59.732 131.574,59.022 133.410,58.408 134.400 C 55.109 139.721,57.541 145.118,62.653 143.818 C 64.480 143.353,65.600 142.576,65.600 141.772 C 65.600 141.480,66.038 140.768,66.574 140.190 C 67.168 139.550,67.784 138.106,68.151 136.500 C 68.482 135.048,69.088 133.397,69.498 132.830 C 70.389 131.599,70.969 130.097,71.594 127.400 C 71.849 126.300,72.416 125.016,72.855 124.547 C 73.293 124.077,73.993 122.330,74.409 120.663 C 74.826 118.997,75.609 116.951,76.149 116.117 C 76.690 115.283,77.338 113.574,77.590 112.320 C 77.842 111.066,78.457 109.438,78.956 108.702 C 83.142 102.534,80.519 96.625,74.151 97.876 M88.209 98.600 C 86.338 101.671,86.415 101.371,87.042 103.192 C 88.090 106.234,88.641 106.933,95.014 113.306 C 100.957 119.249,101.288 119.661,101.054 120.829 C 100.644 122.878,99.651 124.598,98.475 125.292 C 97.863 125.654,97.126 126.391,96.837 126.931 C 96.548 127.470,95.882 128.142,95.356 128.424 C 94.830 128.705,94.400 129.069,94.400 129.232 C 94.400 129.396,93.007 130.913,91.305 132.605 C 86.607 137.272,85.512 140.938,88.207 142.975 C 90.025 144.350,95.264 143.410,96.233 141.535 C 96.552 140.918,97.338 140.142,97.978 139.811 C 98.619 139.480,99.255 138.856,99.392 138.424 C 99.529 137.993,100.253 137.262,101.000 136.800 C 101.747 136.338,102.471 135.607,102.608 135.176 C 102.745 134.744,103.381 134.120,104.022 133.789 C 104.662 133.458,105.458 132.662,105.789 132.022 C 106.120 131.381,106.755 130.741,107.200 130.600 C 107.645 130.459,108.285 129.808,108.624 129.154 C 108.962 128.500,109.694 127.758,110.251 127.504 C 110.808 127.250,111.611 126.403,112.034 125.621 C 112.457 124.840,113.145 123.750,113.562 123.200 C 115.058 121.230,114.944 120.362,112.824 117.572 C 110.670 114.737,94.718 98.765,93.326 98.049 C 91.644 97.184,88.891 97.481,88.209 98.600 M131.591 115.916 C 128.908 116.931,128.800 117.060,128.800 119.243 C 128.800 124.170,129.465 124.400,143.686 124.400 C 155.110 124.400,155.668 124.332,157.246 122.754 C 158.598 121.402,159.005 118.011,157.935 117.010 C 156.053 115.250,135.601 114.400,131.591 115.916 M177.400 115.474 C 173.392 116.384,172.507 117.406,172.754 120.842 C 172.809 121.603,174.330 123.321,175.510 123.952 C 177.242 124.879,305.144 124.553,306.678 123.618 C 309.956 121.619,309.436 117.096,305.798 115.960 C 303.525 115.251,180.438 114.785,177.400 115.474 M132.031 141.638 C 129.198 142.770,127.465 148.168,129.600 149.210 C 133.486 151.107,132.002 150.992,154.312 151.114 C 174.601 151.224,175.278 151.203,177.062 150.414 C 178.074 149.966,179.120 149.600,179.387 149.600 C 182.063 149.600,180.728 142.998,177.804 141.776 C 176.148 141.084,133.737 140.956,132.031 141.638 M195.933 141.547 C 192.255 142.418,190.866 147.191,193.725 149.135 C 198.430 152.333,215.949 152.048,218.045 148.740 C 219.355 146.674,217.680 142.390,215.282 141.672 C 213.623 141.175,197.933 141.074,195.933 141.547 M232.914 141.540 C 230.655 142.204,228.710 144.800,228.998 146.767 C 229.323 148.993,229.184 148.857,232.497 150.162 L 235.195 151.223 259.897 151.112 L 284.600 151.000 286.871 149.831 C 290.996 147.708,290.149 142.932,285.403 141.549 C 284.037 141.151,234.268 141.142,232.914 141.540 M30.154 170.506 C 29.689 170.778,28.586 171.397,27.704 171.883 C 25.929 172.859,25.600 173.414,25.600 175.433 C 25.600 176.812,25.848 177.157,28.382 179.300 L 29.682 180.400 50.054 180.400 C 72.544 180.400,72.476 180.407,73.990 177.924 C 75.331 175.723,74.691 171.600,73.008 171.600 C 72.733 171.600,72.050 171.240,71.491 170.800 C 70.232 169.810,31.814 169.536,30.154 170.506 M92.700 170.276 C 92.315 170.376,92.000 170.618,92.000 170.812 C 92.000 171.007,91.190 171.641,90.200 172.221 C 87.880 173.581,87.508 176.544,89.500 177.804 C 90.105 178.187,90.905 178.883,91.277 179.350 L 91.954 180.200 127.477 180.316 C 147.015 180.380,163.561 180.331,164.247 180.208 C 166.493 179.804,168.400 177.496,168.400 175.181 C 168.400 173.043,168.158 172.694,165.482 170.975 L 163.964 170.000 128.682 170.046 C 109.277 170.072,93.085 170.175,92.700 170.276 M363.400 174.800 C 363.542 175.029,365.646 175.203,368.324 175.208 C 370.896 175.212,373.894 175.447,374.987 175.730 L 376.973 176.245 377.502 178.823 C 377.897 180.751,378.002 185.077,377.915 196.000 C 377.762 215.367,378.037 214.791,368.852 215.011 C 366.073 215.078,363.710 215.181,363.600 215.239 C 363.075 215.518,376.686 215.800,377.271 215.522 C 377.640 215.347,378.315 214.168,378.772 212.902 C 379.230 211.636,379.783 210.330,380.003 210.000 C 381.147 208.279,381.236 207.041,381.120 194.422 L 381.000 181.400 379.900 179.161 C 379.295 177.930,378.800 176.715,378.800 176.461 C 378.800 174.717,377.472 174.400,370.176 174.400 C 365.596 174.400,363.239 174.539,363.400 174.800 M31.000 196.182 C 24.930 197.741,23.738 200.780,27.799 204.345 L 29.228 205.600 38.871 205.600 L 48.514 205.600 50.504 203.610 C 51.846 202.269,52.413 201.411,52.247 200.978 C 52.111 200.624,52.000 199.903,52.000 199.375 C 52.000 196.396,38.286 194.310,31.000 196.182 M68.800 196.277 C 64.800 197.693,62.932 200.652,64.837 202.553 C 65.367 203.081,66.094 203.938,66.454 204.457 L 67.107 205.400 93.654 205.520 C 123.502 205.656,122.843 205.709,124.009 203.072 C 124.798 201.290,124.709 198.318,123.848 197.679 C 121.382 195.848,121.187 195.835,95.200 195.735 C 73.557 195.651,70.384 195.717,68.800 196.277 M144.200 195.865 C 138.664 196.686,136.579 199.464,138.784 203.081 C 140.120 205.273,141.286 205.605,147.480 205.560 C 154.325 205.511,154.679 205.412,156.062 203.162 C 159.020 198.349,152.889 194.577,144.200 195.865 M175.400 195.840 C 170.482 196.487,169.009 197.307,167.891 200.022 C 167.330 201.385,167.350 201.496,168.353 202.657 C 168.929 203.323,169.599 204.213,169.843 204.634 C 170.383 205.567,190.714 206.064,192.811 205.196 C 195.524 204.071,197.362 199.467,195.696 197.966 C 193.767 196.228,181.902 194.986,175.400 195.840 M29.679 221.824 C 26.432 222.697,26.081 222.986,25.773 225.037 C 25.459 227.136,26.110 228.344,28.396 229.900 C 29.918 230.936,58.769 231.323,62.599 230.358 C 65.125 229.723,66.564 224.430,64.645 222.837 C 62.574 221.118,35.244 220.326,29.679 221.824 M79.000 221.877 C 75.829 222.695,75.600 222.930,75.601 225.349 C 75.605 230.796,75.622 230.800,100.141 230.800 C 123.295 230.800,123.269 230.803,124.201 227.998 C 125.354 224.527,124.541 222.730,121.405 221.819 C 118.263 220.905,82.575 220.954,79.000 221.877 M140.505 221.754 C 137.359 222.615,136.311 225.049,137.745 228.168 C 138.922 230.729,137.311 230.600,168.103 230.600 L 195.606 230.600 197.186 228.800 C 199.609 226.039,199.277 223.993,196.145 222.394 L 194.200 221.400 168.200 221.345 C 149.576 221.306,141.719 221.422,140.505 221.754 M363.857 240.492 C 363.962 240.662,365.792 240.808,367.924 240.819 C 370.056 240.829,372.962 241.054,374.382 241.319 L 376.964 241.800 377.499 244.400 C 378.387 248.711,378.044 276.153,377.081 277.918 C 375.754 280.347,374.450 280.797,368.724 280.799 C 365.773 280.799,363.544 280.967,363.400 281.200 C 363.240 281.459,364.970 281.600,368.300 281.600 C 372.265 281.600,373.625 281.738,374.224 282.200 C 376.180 283.713,371.633 285.042,365.536 284.741 L 362.696 284.600 362.773 294.373 C 362.865 306.032,362.720 305.599,366.514 305.603 C 379.056 305.618,379.703 306.501,379.572 323.447 L 379.495 333.349 380.942 334.674 C 382.508 336.110,385.270 336.529,386.379 335.500 C 386.745 335.160,386.832 335.152,386.651 335.473 C 386.471 335.796,386.723 335.911,387.443 335.834 C 388.675 335.703,389.356 334.721,388.997 333.592 C 388.775 332.891,388.934 332.800,390.373 332.800 C 391.405 332.800,392.002 332.617,392.006 332.300 C 392.010 331.964,392.109 331.941,392.306 332.229 C 392.650 332.731,394.582 332.754,395.067 332.262 C 395.250 332.076,395.097 331.986,394.726 332.062 C 394.005 332.210,393.953 332.066,394.281 330.814 C 394.396 330.371,394.650 330.108,394.845 330.228 C 395.040 330.349,395.200 330.257,395.200 330.024 C 395.200 329.791,395.585 329.600,396.056 329.600 C 396.527 329.600,397.170 329.285,397.486 328.900 C 397.801 328.515,397.953 328.413,397.823 328.672 C 397.693 328.932,397.748 329.244,397.944 329.365 C 398.140 329.487,398.307 328.914,398.315 328.093 C 398.356 323.662,398.368 323.600,399.200 323.600 C 399.990 323.600,400.000 323.333,400.000 303.057 L 400.000 282.514 397.541 282.257 C 396.189 282.116,391.505 282.000,387.131 282.000 L 379.180 282.000 378.772 280.926 C 378.327 279.757,378.551 278.917,380.260 275.354 L 381.241 273.307 381.121 260.154 L 381.000 247.000 379.900 244.907 C 379.295 243.756,378.800 242.569,378.800 242.269 C 378.800 240.543,377.414 240.200,370.391 240.192 C 366.693 240.188,363.752 240.323,363.857 240.492 M223.715 281.096 C 224.988 281.176,226.968 281.175,228.115 281.094 C 229.262 281.014,228.220 280.949,225.800 280.950 C 223.380 280.951,222.442 281.016,223.715 281.096 M0.000 301.600 C 0.000 317.817,0.026 318.400,0.757 318.400 C 1.770 318.400,2.000 319.148,2.000 322.433 L 2.000 325.200 3.256 325.200 C 4.714 325.200,5.569 326.114,5.587 327.692 C 5.597 328.553,5.833 328.837,6.700 329.030 C 8.852 329.509,9.129 329.638,9.377 330.283 C 9.514 330.642,9.432 331.056,9.195 331.203 C 7.333 332.354,10.567 332.417,76.251 332.508 C 135.019 332.589,142.578 332.669,142.408 333.200 C 142.302 333.530,142.156 340.595,142.082 348.900 L 141.948 364.000 129.074 364.042 C 111.089 364.100,110.980 364.104,111.110 364.730 C 111.170 365.021,111.065 365.164,110.875 365.046 C 110.327 364.707,108.800 365.973,108.800 366.767 C 108.800 367.314,108.567 367.444,107.835 367.305 C 107.145 367.173,106.743 367.359,106.421 367.960 C 106.174 368.422,105.687 368.800,105.339 368.800 C 104.883 368.800,104.771 369.047,104.938 369.685 C 105.109 370.337,104.831 370.904,103.885 371.833 C 103.178 372.528,102.392 373.363,102.138 373.690 C 101.814 374.108,101.660 378.111,101.620 387.142 L 101.564 400.000 199.982 400.000 L 298.400 400.000 298.400 386.800 L 298.400 373.600 296.800 373.600 L 295.200 373.600 295.153 371.100 C 295.127 369.725,295.139 368.357,295.179 368.060 C 295.220 367.763,295.061 367.638,294.827 367.783 C 294.592 367.929,294.400 367.884,294.400 367.683 C 294.400 367.483,293.283 367.286,291.919 367.245 C 289.053 367.159,289.199 367.235,289.025 365.746 C 288.821 363.999,288.820 363.997,288.500 364.047 C 288.335 364.073,281.405 364.073,273.100 364.047 L 258.000 364.000 258.000 356.180 L 258.000 348.359 256.500 347.691 C 255.197 347.112,252.649 346.996,237.128 346.812 C 213.008 346.526,215.400 348.723,215.400 326.859 C 215.400 305.801,215.307 306.006,224.826 305.995 C 227.342 305.992,229.805 305.881,230.300 305.748 L 231.200 305.507 231.200 295.633 C 231.200 288.487,231.067 285.627,230.720 285.280 C 230.349 284.909,204.124 284.800,115.120 284.800 L 0.000 284.800 0.000 301.600 M4.970 331.878 C 5.029 332.275,5.209 332.570,5.371 332.533 C 5.979 332.396,6.002 332.100,5.442 331.635 C 4.972 331.245,4.884 331.290,4.970 331.878 M110.913 366.518 C 111.029 366.821,110.798 367.060,110.356 367.093 C 109.597 367.150,109.369 366.765,109.867 366.267 C 110.282 365.851,110.696 365.951,110.913 366.518 M102.382 371.634 C 101.767 372.782,102.032 372.815,103.086 371.720 C 103.712 371.069,103.804 370.800,103.400 370.800 C 103.085 370.800,102.627 371.175,102.382 371.634 M104.688 372.773 C 104.728 373.308,104.508 373.528,103.973 373.488 C 103.081 373.421,103.004 373.156,103.680 372.480 C 104.356 371.804,104.621 371.881,104.688 372.773 " stroke="none" fill="#848483" fill-rule="evenodd"></path><path id="path4" d="M11.600 0.800 C 11.600 1.625,11.482 1.650,7.300 1.691 C 6.585 1.698,6.000 1.860,6.000 2.052 C 6.000 2.243,5.809 2.400,5.576 2.400 C 5.343 2.400,5.280 2.175,5.435 1.900 C 5.637 1.543,5.558 1.551,5.159 1.927 C 4.683 2.376,4.715 2.539,5.376 3.027 C 6.101 3.562,6.104 3.600,5.427 3.600 C 4.796 3.600,4.773 3.688,5.251 4.277 C 5.624 4.737,5.640 4.857,5.300 4.653 C 4.929 4.430,4.800 4.824,4.800 6.176 C 4.800 7.952,4.767 8.000,3.551 8.000 C 2.192 8.000,2.571 6.831,3.949 6.772 C 4.805 6.735,3.320 6.069,2.290 6.028 C 1.667 6.003,1.606 6.273,1.794 8.212 C 2.070 11.051,1.736 12.400,0.757 12.400 C 0.022 12.400,-0.000 13.208,-0.000 40.742 L -0.000 69.084 2.700 69.339 C 4.185 69.480,88.218 69.596,189.440 69.597 C 307.105 69.599,373.899 69.740,374.640 69.988 C 375.278 70.201,381.245 70.426,387.900 70.488 L 400.001 70.600 400.000 39.300 C 400.000 8.591,399.985 8.000,399.224 8.000 C 398.616 8.000,398.421 7.675,398.324 6.500 C 398.207 5.086,398.115 4.993,396.723 4.877 C 395.335 4.762,395.238 4.665,395.123 3.277 C 395.007 1.885,394.914 1.793,393.500 1.676 C 392.325 1.579,392.000 1.384,392.000 0.776 C 392.000 0.009,389.760 0.000,201.800 0.000 C 11.867 0.000,11.600 0.001,11.600 0.800 M89.800 24.325 C 91.924 25.349,93.430 27.016,94.200 29.199 C 94.547 30.182,95.071 31.354,95.365 31.802 C 96.400 33.382,96.544 35.869,95.684 37.297 C 95.252 38.014,94.590 39.552,94.212 40.715 C 93.760 42.108,93.163 43.058,92.463 43.497 C 91.878 43.863,90.739 44.744,89.931 45.453 C 85.729 49.141,77.939 47.467,74.600 42.158 C 74.160 41.458,73.440 40.379,73.000 39.759 C 71.892 38.198,71.825 31.486,72.904 29.982 C 75.851 25.868,76.202 25.555,79.400 24.156 C 83.830 22.220,85.487 21.932,87.000 22.837 C 87.660 23.231,88.920 23.901,89.800 24.325 M134.279 24.249 C 136.842 25.338,137.715 26.283,140.099 30.549 C 140.994 32.149,141.056 37.070,140.206 38.913 C 139.317 40.837,137.056 43.740,136.054 44.244 C 135.568 44.489,134.756 45.078,134.249 45.554 C 133.086 46.647,131.174 47.200,128.562 47.200 C 116.963 47.200,113.325 27.991,124.293 24.655 C 125.342 24.336,126.830 23.787,127.600 23.434 C 129.330 22.642,130.969 22.842,134.279 24.249 M43.500 26.221 C 45.418 26.479,45.600 26.593,45.600 27.535 C 45.600 28.178,46.138 29.118,47.031 30.032 C 49.399 32.457,49.525 38.600,47.224 39.468 C 46.428 39.769,46.004 40.271,45.813 41.142 C 45.589 42.161,45.262 42.460,44.001 42.800 C 43.154 43.028,42.403 43.354,42.331 43.524 C 41.525 45.432,36.467 46.020,35.553 44.313 C 35.324 43.883,34.523 43.276,33.775 42.964 C 32.918 42.606,32.323 42.031,32.167 41.412 C 32.032 40.871,31.579 40.320,31.163 40.188 C 29.602 39.693,29.200 38.841,29.200 36.027 C 29.200 31.137,29.521 29.879,30.943 29.200 C 31.718 28.830,32.250 28.245,32.331 27.676 C 32.488 26.569,32.728 26.462,36.032 26.033 C 38.649 25.693,39.783 25.721,43.500 26.221 M42.918 96.820 C 40.794 97.472,22.292 116.249,21.644 118.410 C 20.865 121.010,21.393 123.676,23.089 125.708 C 27.229 130.671,40.805 143.580,43.058 144.697 L 45.400 145.858 47.480 144.946 C 51.759 143.069,52.362 137.684,48.687 134.169 C 47.979 133.491,47.103 132.591,46.740 132.169 C 46.378 131.746,45.658 131.024,45.140 130.564 C 44.623 130.105,43.084 128.530,41.720 127.064 C 40.357 125.599,39.072 124.400,38.865 124.400 C 38.450 124.400,36.800 121.116,36.800 120.290 C 36.800 120.005,39.670 116.864,43.177 113.310 C 49.740 106.660,50.501 105.663,50.964 103.104 C 51.816 98.396,47.856 95.302,42.918 96.820 M74.309 96.666 C 73.709 96.768,72.809 97.383,72.309 98.032 C 71.809 98.682,70.981 99.748,70.469 100.401 C 69.958 101.054,69.087 103.059,68.535 104.857 C 67.983 106.655,67.196 108.592,66.787 109.163 C 66.378 109.733,65.748 111.363,65.388 112.785 C 65.028 114.207,64.317 116.097,63.808 116.985 C 63.299 117.873,62.594 119.616,62.242 120.857 C 61.891 122.098,61.062 124.141,60.401 125.397 C 59.741 126.653,59.200 128.100,59.200 128.612 C 59.200 129.123,58.547 130.770,57.750 132.271 C 56.253 135.088,55.520 139.634,56.156 142.165 C 56.639 144.091,60.604 146.193,62.546 145.552 C 65.605 144.542,68.056 141.607,69.064 137.748 C 69.398 136.467,70.087 134.695,70.595 133.810 C 71.103 132.924,71.824 131.122,72.198 129.805 C 72.572 128.488,73.297 126.688,73.809 125.805 C 74.321 124.922,75.035 123.054,75.394 121.652 C 75.753 120.251,76.396 118.631,76.823 118.052 C 77.249 117.474,77.968 115.665,78.419 114.034 C 78.870 112.403,79.606 110.553,80.054 109.924 C 80.503 109.294,81.151 107.349,81.496 105.601 C 82.806 98.948,80.170 95.670,74.309 96.666 M88.600 96.777 C 86.969 97.443,84.297 101.134,84.589 102.318 C 85.071 104.277,87.714 107.736,91.989 112.003 C 100.154 120.153,100.128 120.119,99.471 121.692 C 99.157 122.442,96.379 125.585,93.297 128.675 C 84.286 137.709,83.260 140.110,86.954 143.514 C 91.152 147.385,93.138 146.420,104.481 135.001 C 119.264 120.121,119.222 121.641,105.243 107.466 C 94.372 96.443,92.447 95.207,88.600 96.777 M48.164 97.956 C 49.223 98.371,49.952 101.081,49.610 103.334 C 49.353 105.026,48.899 105.601,43.566 110.979 C 34.009 120.617,34.089 120.512,35.462 121.651 C 35.826 121.953,36.371 122.791,36.672 123.512 C 36.974 124.234,37.776 125.162,38.455 125.575 C 39.134 125.988,39.898 126.744,40.152 127.255 C 40.407 127.766,41.034 128.393,41.545 128.648 C 42.056 128.902,42.818 129.675,43.237 130.365 C 43.657 131.055,44.435 131.785,44.966 131.987 C 45.497 132.189,46.049 132.725,46.193 133.177 C 46.337 133.630,47.053 134.458,47.785 135.016 C 50.965 137.441,50.268 143.244,46.740 143.717 C 43.272 144.182,42.453 143.612,33.298 134.366 C 28.634 129.655,24.350 125.331,23.778 124.758 C 21.827 122.799,22.129 117.416,24.245 116.452 C 24.777 116.210,25.424 115.546,25.684 114.976 C 25.943 114.406,26.669 113.675,27.295 113.351 C 27.922 113.027,28.642 112.307,28.895 111.751 C 29.149 111.195,29.858 110.480,30.471 110.163 C 31.085 109.846,31.858 109.062,32.189 108.422 C 32.520 107.781,33.155 107.141,33.600 107.000 C 34.045 106.859,34.685 106.208,35.024 105.554 C 35.362 104.900,36.079 104.165,36.617 103.919 C 37.155 103.674,37.950 102.872,38.384 102.137 C 38.818 101.402,39.440 100.800,39.766 100.800 C 40.092 100.800,40.832 100.181,41.409 99.424 C 41.986 98.667,42.850 97.972,43.329 97.878 C 44.778 97.596,47.353 97.638,48.164 97.956 M78.800 98.116 C 81.358 99.407,81.441 105.041,78.956 108.702 C 78.457 109.438,77.842 111.066,77.590 112.320 C 77.338 113.574,76.690 115.283,76.149 116.117 C 75.609 116.951,74.826 118.997,74.409 120.663 C 73.993 122.330,73.293 124.077,72.855 124.547 C 72.416 125.016,71.849 126.300,71.594 127.400 C 70.969 130.097,70.389 131.599,69.498 132.830 C 69.088 133.397,68.482 135.048,68.151 136.500 C 67.784 138.106,67.168 139.550,66.574 140.190 C 66.038 140.768,65.600 141.480,65.600 141.772 C 65.600 142.576,64.480 143.353,62.653 143.818 C 57.541 145.118,55.109 139.721,58.408 134.400 C 59.022 133.410,59.732 131.574,59.986 130.320 C 60.240 129.066,60.898 127.378,61.447 126.569 C 61.996 125.760,62.727 123.848,63.072 122.320 C 63.417 120.793,64.096 119.061,64.581 118.471 C 65.065 117.882,65.765 116.146,66.136 114.614 C 66.507 113.081,67.251 111.191,67.789 110.414 C 68.327 109.636,69.056 107.752,69.409 106.227 C 69.762 104.702,70.445 102.987,70.926 102.415 C 71.407 101.843,72.138 100.626,72.551 99.709 C 73.019 98.670,73.622 97.979,74.151 97.876 C 75.913 97.530,77.834 97.629,78.800 98.116 M93.326 98.049 C 94.718 98.765,110.670 114.737,112.824 117.572 C 114.944 120.362,115.058 121.230,113.562 123.200 C 113.145 123.750,112.457 124.840,112.034 125.621 C 111.611 126.403,110.808 127.250,110.251 127.504 C 109.694 127.758,108.962 128.500,108.624 129.154 C 108.285 129.808,107.645 130.459,107.200 130.600 C 106.755 130.741,106.120 131.381,105.789 132.022 C 105.458 132.662,104.662 133.458,104.022 133.789 C 103.381 134.120,102.745 134.744,102.608 135.176 C 102.471 135.607,101.747 136.338,101.000 136.800 C 100.253 137.262,99.529 137.993,99.392 138.424 C 99.255 138.856,98.619 139.480,97.978 139.811 C 97.338 140.142,96.552 140.918,96.233 141.535 C 95.264 143.410,90.025 144.350,88.207 142.975 C 85.512 140.938,86.607 137.272,91.305 132.605 C 93.007 130.913,94.400 129.396,94.400 129.232 C 94.400 129.069,94.830 128.705,95.356 128.424 C 95.882 128.142,96.548 127.470,96.837 126.931 C 97.126 126.391,97.863 125.654,98.475 125.292 C 99.651 124.598,100.644 122.878,101.054 120.829 C 101.288 119.661,100.957 119.249,95.014 113.306 C 88.641 106.933,88.090 106.234,87.042 103.192 C 86.415 101.371,86.338 101.671,88.209 98.600 C 88.891 97.481,91.644 97.184,93.326 98.049 M133.400 113.546 C 128.557 115.340,127.803 116.160,127.801 119.629 C 127.799 125.318,128.791 125.674,144.200 125.518 C 157.205 125.386,157.921 125.244,159.032 122.586 C 160.465 119.154,159.625 116.529,156.527 114.762 L 154.200 113.435 144.200 113.342 C 138.700 113.291,133.840 113.383,133.400 113.546 M177.600 113.547 C 171.411 115.140,169.225 122.030,174.068 124.673 C 175.872 125.658,304.798 125.823,307.119 124.844 C 311.271 123.092,310.735 116.896,306.221 114.482 L 304.200 113.400 241.400 113.345 C 206.860 113.315,178.150 113.406,177.600 113.547 M156.200 116.158 C 158.186 117.059,158.008 116.860,158.405 118.622 C 158.902 120.824,157.903 122.768,155.657 123.970 C 154.543 124.566,132.962 124.554,131.248 123.957 C 129.173 123.233,127.708 117.966,129.291 116.924 C 132.178 115.023,152.430 114.447,156.200 116.158 M305.798 115.960 C 309.436 117.096,309.956 121.619,306.678 123.618 C 305.144 124.553,177.242 124.879,175.510 123.952 C 174.330 123.321,172.809 121.603,172.754 120.842 C 172.507 117.406,173.392 116.384,177.400 115.474 C 180.438 114.785,303.525 115.251,305.798 115.960 M130.523 140.987 C 127.114 142.469,126.584 149.049,129.743 150.669 C 130.435 151.023,131.429 151.648,131.954 152.057 C 132.857 152.760,134.070 152.800,154.713 152.800 L 176.517 152.800 178.589 151.425 C 181.255 149.655,181.470 149.368,181.801 147.145 C 182.193 144.516,180.969 141.797,179.029 140.986 C 177.002 140.139,132.471 140.140,130.523 140.987 M194.000 141.040 C 191.948 142.350,190.800 144.360,190.800 146.641 L 190.800 148.753 193.299 150.677 L 195.797 152.600 204.857 152.727 L 213.918 152.853 216.206 151.562 C 220.170 149.325,220.849 144.342,217.592 141.392 C 216.367 140.282,195.670 139.973,194.000 141.040 M230.965 141.156 C 228.820 142.464,228.000 143.865,228.000 146.221 C 228.000 149.111,228.178 149.427,230.750 151.120 L 233.000 152.600 259.416 152.600 L 285.832 152.600 287.127 151.600 C 290.617 148.904,290.514 149.043,290.697 146.768 C 290.903 144.199,289.890 142.354,287.606 141.141 C 285.426 139.982,232.866 139.997,230.965 141.156 M177.804 141.776 C 180.728 142.998,182.063 149.600,179.387 149.600 C 179.120 149.600,178.074 149.966,177.062 150.414 C 175.278 151.203,174.601 151.224,154.312 151.114 C 132.002 150.992,133.486 151.107,129.600 149.210 C 127.465 148.168,129.198 142.770,132.031 141.638 C 133.737 140.956,176.148 141.084,177.804 141.776 M215.282 141.672 C 217.680 142.390,219.355 146.674,218.045 148.740 C 215.949 152.048,198.430 152.333,193.725 149.135 C 190.866 147.191,192.255 142.418,195.933 141.547 C 197.933 141.074,213.623 141.175,215.282 141.672 M285.403 141.549 C 290.149 142.932,290.996 147.708,286.871 149.831 L 284.600 151.000 259.897 151.112 L 235.195 151.223 232.497 150.162 C 229.184 148.857,229.323 148.993,228.998 146.767 C 228.710 144.800,230.655 142.204,232.914 141.540 C 234.268 141.142,284.037 141.151,285.403 141.549 M27.862 170.042 C 23.430 172.978,23.570 178.208,28.148 180.714 C 29.932 181.691,71.070 181.770,72.984 180.800 C 76.353 179.093,77.206 174.202,74.644 171.284 C 72.421 168.752,72.894 168.800,50.281 168.800 L 29.737 168.800 27.862 170.042 M91.398 169.536 C 85.891 172.894,85.716 177.811,91.000 180.736 C 92.508 181.571,161.231 181.982,165.097 181.180 C 170.881 179.979,171.317 171.679,165.719 169.340 C 163.413 168.377,92.994 168.562,91.398 169.536 M71.491 170.800 C 72.050 171.240,72.733 171.600,73.008 171.600 C 74.691 171.600,75.331 175.723,73.990 177.924 C 72.476 180.407,72.544 180.400,50.054 180.400 L 29.682 180.400 28.382 179.300 C 25.848 177.157,25.600 176.812,25.600 175.433 C 25.600 173.414,25.929 172.859,27.704 171.883 C 28.586 171.397,29.689 170.778,30.154 170.506 C 31.814 169.536,70.232 169.810,71.491 170.800 M165.482 170.975 C 168.158 172.694,168.400 173.043,168.400 175.181 C 168.400 177.496,166.493 179.804,164.247 180.208 C 163.561 180.331,147.015 180.380,127.477 180.316 L 91.954 180.200 91.277 179.350 C 90.905 178.883,90.105 178.187,89.500 177.804 C 87.508 176.544,87.880 173.581,90.200 172.221 C 91.190 171.641,92.000 171.007,92.000 170.812 C 92.000 170.128,93.700 170.092,128.682 170.046 L 163.964 170.000 165.482 170.975 M361.520 172.411 C 360.486 172.585,359.406 172.879,359.120 173.064 C 358.834 173.249,327.190 173.490,288.800 173.600 C 210.569 173.824,216.713 173.574,215.200 176.600 C 214.120 178.759,214.323 211.971,215.425 213.446 C 217.311 215.973,217.962 216.189,224.125 216.332 C 227.263 216.405,230.019 216.650,230.297 216.881 C 230.936 217.411,231.007 235.440,230.379 237.700 L 229.962 239.200 225.881 239.208 C 214.111 239.232,214.298 238.861,214.491 261.866 C 214.673 283.541,214.109 282.326,224.197 282.795 C 227.499 282.948,178.405 283.102,115.100 283.137 C 0.288 283.200,0.000 283.202,0.000 284.000 C 0.000 284.798,0.267 284.800,115.151 284.800 C 210.408 284.800,230.378 284.892,230.743 285.331 C 231.027 285.673,231.223 288.987,231.293 294.631 L 231.403 303.400 231.601 293.067 C 231.845 280.384,232.211 281.201,226.284 281.198 C 215.827 281.192,215.597 280.746,215.609 260.513 C 215.621 240.348,215.357 240.895,225.254 240.494 C 232.335 240.207,231.768 241.269,231.934 227.974 L 232.067 217.231 231.052 216.216 C 230.074 215.238,229.853 215.200,225.084 215.200 L 220.131 215.200 218.266 213.747 C 215.548 211.629,215.536 211.542,215.677 194.200 C 215.813 177.365,215.818 177.333,218.400 175.820 C 219.795 175.003,220.063 174.999,297.667 174.800 C 340.493 174.690,375.668 174.465,375.833 174.300 C 375.998 174.135,375.851 174.000,375.506 174.000 C 375.162 174.000,373.917 173.552,372.740 173.004 C 370.455 171.941,365.777 171.693,361.520 172.411 M235.600 192.711 C 235.600 193.102,235.319 193.824,234.975 194.314 C 234.408 195.124,234.408 195.265,234.975 195.832 C 235.319 196.176,235.600 196.894,235.600 197.429 L 235.600 198.400 251.317 198.400 L 267.035 198.400 267.417 196.900 C 267.628 196.075,267.745 194.635,267.677 193.700 L 267.554 192.000 251.577 192.000 C 236.533 192.000,235.600 192.042,235.600 192.711 M285.200 192.588 C 285.200 192.911,284.660 193.575,284.000 194.063 C 282.504 195.169,282.498 195.440,283.964 195.733 C 284.857 195.911,285.191 196.250,285.396 197.183 L 285.664 198.400 290.985 198.400 C 296.034 198.400,296.318 198.357,296.524 197.570 C 296.643 197.114,297.104 196.646,297.548 196.530 C 298.418 196.302,298.684 195.357,298.456 193.300 L 298.312 192.000 291.756 192.000 C 286.254 192.000,285.200 192.095,285.200 192.588 M314.000 194.031 C 314.000 195.742,314.184 196.246,315.169 197.231 L 316.338 198.400 337.179 198.400 L 358.020 198.400 358.264 197.179 C 358.452 196.240,358.773 195.905,359.654 195.729 C 361.061 195.448,361.108 195.069,359.811 194.478 C 359.267 194.230,358.708 193.571,358.568 193.014 L 358.313 192.000 336.157 192.000 L 314.000 192.000 314.000 194.031 M30.600 194.341 C 29.388 194.619,27.388 195.677,25.904 196.826 C 23.449 198.727,24.583 204.183,27.799 205.937 C 29.311 206.762,44.063 207.125,47.824 206.429 C 53.993 205.289,55.298 199.115,50.089 195.718 L 47.800 194.226 39.800 194.146 C 35.400 194.102,31.260 194.189,30.600 194.341 M68.931 194.377 C 62.303 195.992,60.803 203.522,66.600 206.072 C 68.500 206.908,121.319 206.840,123.000 206.000 C 127.011 203.995,126.735 197.860,122.521 195.346 L 120.600 194.200 95.400 194.134 C 81.540 194.097,69.629 194.207,68.931 194.377 M142.800 194.352 C 138.201 195.315,135.711 199.354,137.339 203.208 C 138.652 206.316,140.830 206.986,148.713 206.709 C 154.969 206.489,155.657 206.254,157.545 203.692 C 161.886 197.800,153.052 192.205,142.800 194.352 M172.015 194.451 C 164.204 196.797,164.488 205.769,172.400 206.598 C 177.794 207.163,192.868 206.669,194.318 205.879 C 198.436 203.635,198.304 198.141,194.070 195.576 L 191.800 194.200 182.600 194.117 C 177.130 194.068,172.839 194.203,172.015 194.451 M46.600 196.144 C 49.933 197.034,52.000 198.271,52.000 199.375 C 52.000 199.903,52.111 200.624,52.247 200.978 C 52.413 201.411,51.846 202.269,50.504 203.610 L 48.514 205.600 38.871 205.600 L 29.228 205.600 27.799 204.345 C 24.941 201.836,24.812 198.533,27.525 197.343 C 31.470 195.612,42.106 194.943,46.600 196.144 M121.600 196.588 C 124.125 197.652,124.269 197.805,124.523 199.704 C 124.873 202.314,123.701 204.622,121.734 205.194 C 120.654 205.509,112.349 205.605,93.654 205.520 L 67.107 205.400 66.454 204.457 C 66.094 203.938,65.367 203.081,64.837 202.553 C 62.932 200.652,64.800 197.693,68.800 196.277 C 71.766 195.227,119.032 195.506,121.600 196.588 M153.200 196.467 C 156.672 197.462,157.859 200.238,156.062 203.162 C 154.679 205.412,154.325 205.511,147.480 205.560 C 140.099 205.613,138.005 204.421,138.001 200.162 C 137.998 196.455,146.201 194.461,153.200 196.467 M193.000 196.774 C 196.058 197.952,195.976 197.859,196.083 200.304 C 196.182 202.591,195.065 204.262,192.811 205.196 C 190.714 206.064,170.383 205.567,169.843 204.634 C 169.599 204.213,168.929 203.323,168.353 202.657 C 166.513 200.528,168.496 197.260,172.113 196.460 C 177.591 195.248,189.502 195.427,193.000 196.774 M362.809 216.779 C 361.981 218.777,362.395 238.567,363.283 239.454 C 363.845 240.017,364.863 240.150,369.083 240.215 C 374.628 240.299,376.946 239.942,374.198 239.426 C 373.334 239.264,372.135 238.877,371.534 238.566 C 370.860 238.217,369.218 238.000,367.259 238.000 L 364.078 238.000 363.639 236.740 C 363.007 234.926,363.042 217.518,363.680 216.880 C 364.007 216.553,365.920 216.400,369.680 216.400 C 373.093 216.400,375.200 216.247,375.200 216.000 C 375.200 215.751,372.950 215.600,369.249 215.600 L 363.297 215.600 362.809 216.779 M31.000 219.553 C 25.729 220.643,23.308 224.611,25.338 228.832 C 26.722 231.710,27.042 231.761,44.503 231.922 C 64.062 232.103,64.680 231.995,66.393 228.124 C 67.834 224.866,66.441 222.113,62.399 220.231 L 60.200 219.208 46.200 219.257 C 38.500 219.283,31.660 219.417,31.000 219.553 M80.800 219.548 C 75.457 220.510,73.195 224.172,75.062 228.838 C 76.258 231.827,75.898 231.780,98.353 231.926 C 123.386 232.089,123.826 232.029,125.411 228.235 C 126.715 225.114,125.568 222.265,122.307 220.524 L 120.200 219.400 101.200 219.348 C 90.750 219.319,81.570 219.409,80.800 219.548 M140.200 220.211 C 134.421 222.995,133.704 228.369,138.734 231.200 C 140.543 232.218,194.927 232.090,196.600 231.064 C 201.234 228.222,201.183 223.729,196.487 220.976 L 193.800 219.400 168.000 219.324 L 142.200 219.248 140.200 220.211 M62.397 221.837 C 65.384 222.877,66.123 224.722,64.942 228.187 C 64.076 230.730,63.551 230.800,45.282 230.800 C 29.800 230.800,29.711 230.795,28.396 229.900 C 26.110 228.344,25.459 227.136,25.773 225.037 C 26.291 221.588,28.060 221.258,46.200 221.232 C 58.267 221.215,60.891 221.313,62.397 221.837 M121.405 221.819 C 125.739 223.079,126.015 229.188,121.789 230.318 C 119.246 230.999,80.962 231.000,78.692 230.320 C 76.106 229.546,74.291 224.348,76.100 222.897 C 78.280 221.150,116.015 220.252,121.405 221.819 M196.145 222.394 C 199.277 223.993,199.609 226.039,197.186 228.800 L 195.606 230.600 168.103 230.600 C 152.976 230.600,140.150 230.471,139.600 230.314 C 138.086 229.882,136.765 226.773,137.280 224.854 C 138.255 221.220,137.715 221.281,168.200 221.345 L 194.200 221.400 196.145 222.394 M235.600 258.506 C 235.600 259.010,235.333 259.804,235.006 260.270 C 234.480 261.021,234.480 261.145,235.006 261.347 C 235.351 261.479,235.600 262.084,235.600 262.787 C 235.600 263.920,235.699 264.001,237.100 264.011 C 248.280 264.093,266.974 263.959,267.138 263.796 C 267.254 263.679,267.361 262.282,267.375 260.692 L 267.400 257.800 251.500 257.695 L 235.600 257.591 235.600 258.506 M284.883 258.757 C 284.601 259.394,284.017 260.007,283.585 260.120 C 282.442 260.419,282.624 261.060,283.986 261.535 C 284.746 261.800,285.264 262.317,285.429 262.974 C 285.600 263.654,285.976 264.015,286.543 264.043 C 293.952 264.419,296.400 264.268,296.400 263.436 C 296.400 263.160,296.840 262.699,297.379 262.411 C 298.592 261.762,298.712 261.428,298.492 259.300 L 298.316 257.600 291.856 257.600 L 285.395 257.600 284.883 258.757 M314.000 260.000 C 314.000 264.393,312.256 264.083,336.700 264.043 C 348.263 264.025,357.741 263.963,357.762 263.905 C 358.259 262.541,359.214 261.373,359.913 261.272 C 361.027 261.112,361.062 260.562,359.977 260.278 C 359.525 260.160,358.945 259.509,358.689 258.831 L 358.225 257.600 336.112 257.600 L 314.000 257.600 314.000 260.000 M363.067 281.867 C 362.398 282.535,362.818 284.311,363.700 284.548 C 368.090 285.724,376.464 283.836,374.224 282.176 C 373.413 281.575,363.630 281.304,363.067 281.867 M371.717 283.096 C 370.351 283.174,368.011 283.174,366.517 283.097 C 365.022 283.020,366.140 282.956,369.000 282.955 C 371.860 282.955,373.082 283.018,371.717 283.096 M0.000 321.200 C 0.000 323.825,0.056 324.002,0.900 324.040 C 1.763 324.078,1.759 324.093,0.800 324.400 C -0.159 324.707,-0.163 324.722,0.700 324.760 C 1.346 324.789,1.608 325.054,1.628 325.700 C 1.722 328.800,2.174 329.582,3.873 329.594 C 4.427 329.598,4.847 329.929,5.023 330.500 C 5.473 331.966,6.478 332.592,8.600 332.729 C 10.573 332.856,10.587 332.848,9.659 332.178 C 9.039 331.729,8.873 331.402,9.173 331.217 C 9.900 330.767,9.207 329.614,8.056 329.359 C 5.750 328.849,5.600 328.746,5.587 327.673 C 5.569 326.113,4.708 325.200,3.256 325.200 L 2.000 325.200 2.000 322.433 C 2.000 319.148,1.770 318.400,0.757 318.400 C 0.086 318.400,0.000 318.719,0.000 321.200 M235.600 324.106 C 235.600 324.610,235.333 325.403,235.007 325.868 C 234.484 326.616,234.484 326.772,235.007 327.206 C 235.333 327.477,235.600 328.107,235.600 328.606 C 235.600 329.977,235.850 330.000,250.533 329.996 C 268.631 329.990,268.272 330.095,267.608 325.000 L 267.400 323.400 251.500 323.295 L 235.600 323.191 235.600 324.106 M285.197 324.207 C 284.987 324.761,284.361 325.387,283.807 325.597 C 282.503 326.093,282.532 326.628,283.896 327.282 C 284.499 327.571,285.229 328.301,285.518 328.904 L 286.044 330.000 290.828 330.000 L 295.612 330.000 296.986 328.700 C 298.436 327.329,298.523 327.091,298.447 324.700 L 298.400 323.200 291.990 323.200 L 285.580 323.200 285.197 324.207 M314.000 326.157 C 314.000 330.078,312.219 329.783,336.664 329.916 L 357.927 330.033 358.393 328.620 C 358.746 327.551,359.168 327.119,360.130 326.844 L 361.400 326.480 360.110 325.956 C 359.314 325.633,358.671 325.005,358.431 324.316 L 358.042 323.200 336.021 323.200 L 314.000 323.200 314.000 326.157 M11.549 332.500 C 11.264 333.059,11.408 334.401,11.755 334.406 C 12.000 334.409,11.930 334.587,11.600 334.800 C 11.067 335.145,11.067 335.192,11.600 335.227 C 11.930 335.248,12.740 335.386,13.400 335.533 C 14.060 335.680,43.307 335.800,78.393 335.800 L 142.186 335.800 142.430 334.303 C 142.564 333.480,142.582 332.715,142.470 332.603 C 142.272 332.405,11.650 332.302,11.549 332.500 M103.680 372.480 C 103.004 373.156,103.081 373.421,103.973 373.488 C 104.508 373.528,104.728 373.308,104.688 372.773 C 104.621 371.881,104.356 371.804,103.680 372.480 " stroke="none" fill="#ababaa" fill-rule="evenodd"></path></g></svg>