<svg id="svg" xmlns="http://www.w3.org/2000/svg" xmlns:xlink="http://www.w3.org/1999/xlink" width="400" height="400" viewBox="0, 0, 400,400"><g id="svgg"><path id="path0" d="M120.400 265.957 C 120.400 270.517,119.847 272.415,119.026 270.678 C 118.854 270.315,118.744 270.321,118.566 270.702 C 118.437 270.979,118.172 271.107,117.978 270.986 C 117.395 270.626,117.233 272.315,117.319 277.849 C 117.382 281.938,117.288 283.055,116.895 282.904 C 116.617 282.798,116.151 282.909,115.858 283.152 C 115.566 283.394,115.213 283.480,115.074 283.341 C 114.936 283.202,114.646 283.554,114.430 284.122 C 113.974 285.321,113.964 291.600,114.419 291.600 C 114.587 291.600,114.641 291.920,114.539 292.312 C 114.370 292.959,115.621 294.889,116.170 294.826 C 117.019 294.729,117.200 294.931,117.200 295.971 C 117.200 297.380,118.118 298.400,119.386 298.400 C 120.432 298.400,120.851 299.120,120.526 300.361 C 120.292 301.257,120.734 301.453,121.521 300.801 C 121.838 300.539,121.831 300.602,121.501 300.984 C 121.117 301.430,119.791 301.580,115.800 301.630 C 109.812 301.703,108.919 301.939,108.342 303.594 L 107.922 304.800 101.964 304.800 L 96.006 304.800 95.301 306.300 L 94.596 307.800 90.635 307.915 C 86.722 308.029,86.658 308.047,85.249 309.415 C 84.124 310.508,83.484 310.807,82.212 310.834 C 77.181 310.938,74.554 311.661,74.655 312.913 C 74.685 313.286,74.550 313.493,74.355 313.372 C 74.160 313.251,74.000 313.324,74.000 313.533 C 74.000 313.742,72.641 313.981,70.980 314.065 C 67.795 314.226,67.218 314.568,67.206 316.300 C 67.200 317.146,67.033 317.200,64.449 317.200 C 61.100 317.200,58.912 318.013,58.568 319.386 C 58.336 320.307,58.133 320.375,55.261 320.484 L 52.200 320.600 51.829 322.100 L 51.459 323.600 48.829 323.600 C 46.306 323.600,46.152 323.658,45.000 325.026 C 43.966 326.256,43.501 326.482,41.636 326.666 C 39.861 326.841,39.249 327.114,38.236 328.181 C 37.264 329.204,36.576 329.529,35.013 329.702 C 33.920 329.822,32.964 330.109,32.887 330.338 C 32.811 330.567,32.513 330.665,32.226 330.555 C 31.534 330.289,30.297 331.554,30.564 332.252 C 30.721 332.659,30.368 332.800,29.186 332.800 C 27.394 332.800,24.002 334.671,24.292 335.500 C 24.413 335.846,23.971 336.000,22.856 336.000 C 21.013 336.000,18.556 337.280,18.191 338.429 C 17.998 339.036,17.573 339.200,16.197 339.200 C 14.258 339.200,14.061 339.362,13.931 341.068 C 13.874 341.825,13.619 342.248,13.221 342.252 C 9.167 342.287,8.000 342.799,8.000 344.541 C 8.000 345.209,7.741 345.447,6.940 345.513 C 5.480 345.634,4.800 346.299,4.800 347.604 C 4.800 348.542,4.596 348.749,3.467 348.961 C 2.733 349.099,2.105 349.434,2.071 349.706 C 2.036 349.978,1.894 351.235,1.755 352.500 C 1.546 354.393,1.368 354.800,0.750 354.800 C 0.025 354.800,0.000 355.564,0.000 377.400 L 0.000 400.000 82.765 400.000 L 165.530 400.000 165.810 398.340 C 165.964 397.427,166.537 395.402,167.083 393.840 C 167.654 392.207,168.306 388.959,168.617 386.200 C 168.931 383.416,169.590 380.144,170.186 378.409 C 170.830 376.536,171.437 373.395,171.810 370.009 C 172.137 367.034,172.750 363.430,173.171 362.000 C 173.592 360.570,174.050 358.724,174.187 357.898 C 174.355 356.889,174.813 356.118,175.585 355.548 C 176.547 354.836,176.778 354.311,177.011 352.301 C 177.234 350.382,177.550 349.613,178.590 348.451 C 179.513 347.422,179.975 346.428,180.180 345.033 C 180.469 343.065,181.178 341.581,182.423 340.337 C 182.788 339.972,183.212 338.734,183.364 337.586 C 183.572 336.016,183.942 335.196,184.853 334.285 C 185.791 333.347,186.149 332.524,186.440 330.637 C 186.738 328.703,187.056 327.992,187.982 327.193 C 188.892 326.406,189.211 325.712,189.434 324.027 C 189.653 322.378,190.037 321.519,191.060 320.386 C 191.797 319.570,192.400 318.709,192.400 318.471 C 192.400 316.830,193.404 313.905,194.262 313.047 C 194.911 312.398,195.479 311.123,195.856 309.473 C 197.264 303.298,202.736 303.298,204.144 309.473 C 204.521 311.123,205.089 312.398,205.738 313.047 C 206.596 313.905,207.600 316.830,207.600 318.471 C 207.600 318.709,208.203 319.570,208.940 320.386 C 209.963 321.519,210.347 322.378,210.566 324.027 C 210.789 325.712,211.108 326.406,212.018 327.193 C 212.944 327.992,213.262 328.703,213.560 330.637 C 213.851 332.524,214.209 333.347,215.147 334.285 C 216.058 335.196,216.428 336.016,216.636 337.586 C 216.788 338.734,217.212 339.972,217.577 340.337 C 218.822 341.581,219.531 343.065,219.820 345.033 C 220.025 346.428,220.487 347.422,221.410 348.451 C 222.450 349.613,222.766 350.382,222.989 352.301 C 223.222 354.311,223.453 354.836,224.415 355.548 C 225.187 356.118,225.645 356.889,225.813 357.898 C 225.950 358.724,226.408 360.570,226.829 362.000 C 227.250 363.430,227.863 367.034,228.190 370.009 C 228.563 373.395,229.170 376.536,229.814 378.409 C 230.410 380.144,231.069 383.416,231.383 386.200 C 231.694 388.959,232.346 392.207,232.917 393.840 C 233.463 395.402,234.036 397.427,234.190 398.340 L 234.470 400.000 317.235 400.000 L 400.000 400.000 400.000 377.400 C 400.000 355.564,399.975 354.800,399.250 354.800 C 398.632 354.800,398.454 354.393,398.245 352.500 C 398.106 351.235,397.964 349.978,397.929 349.706 C 397.895 349.434,397.267 349.099,396.533 348.961 C 395.404 348.749,395.200 348.542,395.200 347.604 C 395.200 346.299,394.520 345.634,393.060 345.513 C 392.259 345.447,392.000 345.209,392.000 344.541 C 392.000 342.799,390.833 342.287,386.779 342.252 C 386.381 342.248,386.126 341.825,386.069 341.068 C 385.939 339.362,385.742 339.200,383.803 339.200 C 382.427 339.200,382.002 339.036,381.809 338.429 C 381.444 337.280,378.987 336.000,377.144 336.000 C 376.029 336.000,375.587 335.846,375.708 335.500 C 375.998 334.671,372.606 332.800,370.814 332.800 C 369.632 332.800,369.279 332.659,369.436 332.252 C 369.703 331.554,368.466 330.289,367.774 330.555 C 367.487 330.665,367.189 330.567,367.113 330.338 C 367.036 330.109,366.080 329.822,364.987 329.702 C 363.424 329.529,362.736 329.204,361.764 328.181 C 360.751 327.114,360.139 326.841,358.364 326.666 C 356.499 326.482,356.034 326.256,355.000 325.026 C 353.848 323.658,353.694 323.600,351.171 323.600 L 348.541 323.600 348.171 322.100 L 347.800 320.600 344.739 320.484 C 341.867 320.375,341.664 320.307,341.432 319.386 C 341.088 318.013,338.900 317.200,335.551 317.200 C 332.967 317.200,332.800 317.146,332.794 316.300 C 332.782 314.568,332.205 314.226,329.020 314.065 C 327.359 313.981,326.000 313.742,326.000 313.533 C 326.000 313.324,325.840 313.251,325.645 313.372 C 325.450 313.493,325.315 313.286,325.345 312.913 C 325.446 311.661,322.819 310.938,317.788 310.834 C 316.516 310.807,315.876 310.508,314.751 309.415 C 313.342 308.047,313.278 308.029,309.365 307.915 L 305.404 307.800 304.699 306.300 L 303.994 304.800 298.036 304.800 L 292.078 304.800 291.658 303.594 C 291.081 301.939,290.188 301.703,284.200 301.630 C 280.699 301.586,278.868 301.408,278.597 301.083 C 278.376 300.817,278.367 300.735,278.577 300.900 C 279.284 301.454,279.695 301.207,279.474 300.361 C 279.149 299.120,279.568 298.400,280.614 298.400 C 281.882 298.400,282.800 297.380,282.800 295.971 C 282.800 294.931,282.981 294.729,283.830 294.826 C 284.379 294.889,285.630 292.959,285.461 292.312 C 285.359 291.920,285.413 291.600,285.581 291.600 C 286.036 291.600,286.026 285.321,285.570 284.122 C 285.354 283.554,285.064 283.202,284.926 283.341 C 284.787 283.480,284.434 283.394,284.142 283.152 C 283.849 282.909,283.383 282.798,283.105 282.904 C 282.712 283.055,282.618 281.938,282.681 277.849 C 282.767 272.315,282.605 270.626,282.022 270.986 C 281.828 271.107,281.563 270.979,281.434 270.702 C 281.256 270.321,281.146 270.315,280.974 270.678 C 280.153 272.415,279.600 270.517,279.600 265.957 L 279.600 261.200 278.100 261.213 C 277.275 261.220,276.251 261.490,275.824 261.813 C 275.396 262.136,274.695 262.400,274.265 262.400 C 273.495 262.400,272.441 263.432,265.600 270.884 C 261.445 275.411,255.981 280.800,255.546 280.800 C 255.371 280.800,254.315 281.610,253.200 282.600 C 252.085 283.590,251.006 284.400,250.801 284.400 C 250.596 284.400,249.837 284.906,249.114 285.524 C 248.391 286.142,247.080 287.061,246.200 287.565 C 245.320 288.070,244.455 288.735,244.279 289.044 C 244.102 289.353,243.202 289.985,242.279 290.448 C 241.355 290.911,240.240 291.613,239.800 292.007 C 239.360 292.400,237.740 293.108,236.200 293.578 C 234.660 294.048,232.770 294.867,232.000 295.396 C 231.230 295.926,229.700 296.558,228.600 296.800 C 227.500 297.042,225.970 297.668,225.200 298.189 C 223.474 299.359,221.542 299.855,217.400 300.190 C 215.640 300.332,212.400 300.875,210.200 301.396 C 201.207 303.526,198.793 303.526,189.800 301.396 C 187.600 300.875,184.360 300.332,182.600 300.190 C 178.458 299.855,176.526 299.359,174.800 298.189 C 174.030 297.668,172.500 297.042,171.400 296.800 C 170.300 296.558,168.770 295.926,168.000 295.396 C 167.230 294.867,165.340 294.048,163.800 293.578 C 162.260 293.108,160.640 292.400,160.200 292.007 C 159.760 291.613,158.645 290.911,157.721 290.448 C 156.798 289.985,155.898 289.353,155.721 289.044 C 155.545 288.735,154.680 288.070,153.800 287.565 C 152.920 287.061,151.609 286.142,150.886 285.524 C 150.163 284.906,149.404 284.400,149.199 284.400 C 148.994 284.400,147.915 283.590,146.800 282.600 C 145.685 281.610,144.629 280.800,144.454 280.800 C 144.019 280.800,138.555 275.411,134.400 270.884 C 127.559 263.432,126.505 262.400,125.735 262.400 C 125.305 262.400,124.604 262.136,124.176 261.813 C 123.749 261.490,122.725 261.220,121.900 261.213 L 120.400 261.200 120.400 265.957 M117.076 292.586 C 117.564 294.029,117.535 294.350,116.938 294.121 C 116.617 293.998,116.440 293.672,116.545 293.398 C 116.651 293.122,116.459 292.922,116.115 292.950 C 115.774 292.977,115.449 292.724,115.395 292.386 C 115.245 291.454,116.754 291.634,117.076 292.586 M284.605 292.386 C 284.551 292.724,284.226 292.977,283.885 292.950 C 283.541 292.922,283.349 293.122,283.455 293.398 C 283.560 293.672,283.383 293.998,283.062 294.121 C 282.465 294.350,282.436 294.029,282.924 292.586 C 283.246 291.634,284.755 291.454,284.605 292.386 " stroke="none" fill="#7484bc" fill-rule="evenodd"></path><path id="path1" d="M91.326 80.403 C 90.135 80.883,89.371 82.332,89.987 82.943 C 90.333 83.287,90.386 83.238,90.199 82.748 C 90.032 82.308,90.382 81.757,91.276 81.052 C 92.691 79.937,92.698 79.850,91.326 80.403 M308.724 81.059 C 309.619 81.760,309.968 82.308,309.801 82.748 C 309.607 83.256,309.659 83.294,310.036 82.921 C 310.685 82.276,309.605 80.599,308.326 80.265 C 307.552 80.063,307.618 80.193,308.724 81.059 M79.701 120.600 C 79.705 121.480,79.787 121.793,79.883 121.295 C 79.979 120.798,79.975 120.078,79.875 119.695 C 79.775 119.313,79.696 119.720,79.701 120.600 M320.101 120.600 C 320.105 121.480,320.187 121.793,320.283 121.295 C 320.379 120.798,320.375 120.078,320.275 119.695 C 320.175 119.313,320.096 119.720,320.101 120.600 M97.000 153.799 C 96.120 154.093,94.716 154.449,93.881 154.589 L 92.362 154.843 92.432 168.394 L 92.503 181.944 93.849 183.136 L 95.195 184.328 95.223 194.264 C 95.258 206.371,95.376 207.597,96.495 207.382 C 96.942 207.296,97.192 207.341,97.050 207.483 C 96.909 207.625,97.151 208.123,97.590 208.589 C 98.282 209.326,98.393 210.029,98.430 213.919 C 98.453 216.383,98.630 218.400,98.823 218.400 C 99.017 218.400,99.060 218.700,98.919 219.066 C 98.748 219.513,98.817 219.636,99.132 219.442 C 99.389 219.283,99.600 219.328,99.600 219.541 C 99.600 219.755,100.050 219.880,100.600 219.820 C 101.572 219.713,102.058 223.485,101.617 227.724 C 101.504 228.811,102.358 229.600,103.649 229.600 C 104.757 229.600,104.802 229.675,104.850 231.600 C 104.878 232.700,104.947 233.735,105.004 233.900 C 105.061 234.065,105.244 234.622,105.411 235.139 C 105.662 235.918,105.908 236.038,106.857 235.849 L 108.000 235.620 108.047 238.310 C 108.073 239.790,108.072 241.138,108.045 241.307 C 107.895 242.234,109.249 244.397,110.115 244.615 C 110.867 244.803,111.059 245.086,110.972 245.875 C 110.911 246.435,111.015 247.277,111.205 247.747 C 111.394 248.216,111.561 248.431,111.575 248.225 C 111.649 247.132,114.000 250.260,114.000 251.451 C 114.000 252.167,114.172 252.859,114.383 252.989 C 114.593 253.119,114.657 253.506,114.526 253.849 C 114.333 254.352,114.549 254.446,115.643 254.336 C 116.978 254.202,117.002 254.227,117.123 255.900 C 117.193 256.871,117.450 257.605,117.723 257.613 C 118.564 257.635,120.400 259.534,120.400 260.381 C 120.400 261.059,120.659 261.202,121.900 261.213 C 122.725 261.220,123.749 261.490,124.176 261.813 C 124.604 262.136,125.305 262.400,125.735 262.400 C 126.505 262.400,127.559 263.432,134.400 270.884 C 138.555 275.411,144.019 280.800,144.454 280.800 C 144.629 280.800,145.685 281.610,146.800 282.600 C 147.915 283.590,148.994 284.400,149.199 284.400 C 149.404 284.400,150.163 284.906,150.886 285.524 C 151.609 286.142,152.920 287.061,153.800 287.565 C 154.680 288.070,155.545 288.735,155.721 289.044 C 155.898 289.353,156.798 289.985,157.721 290.448 C 158.645 290.911,159.760 291.613,160.200 292.007 C 160.640 292.400,162.260 293.108,163.800 293.578 C 165.340 294.048,167.230 294.867,168.000 295.396 C 168.770 295.926,170.300 296.558,171.400 296.800 C 172.500 297.042,174.030 297.668,174.800 298.189 C 176.526 299.359,178.458 299.855,182.600 300.190 C 184.360 300.332,187.600 300.875,189.800 301.396 C 192.000 301.917,195.195 302.549,196.900 302.799 C 200.401 303.314,203.472 302.990,210.200 301.396 C 212.400 300.875,215.640 300.332,217.400 300.190 C 221.542 299.855,223.474 299.359,225.200 298.189 C 225.970 297.668,227.500 297.042,228.600 296.800 C 229.700 296.558,231.230 295.926,232.000 295.396 C 232.770 294.867,234.660 294.048,236.200 293.578 C 237.740 293.108,239.360 292.400,239.800 292.007 C 240.240 291.613,241.355 290.911,242.279 290.448 C 243.202 289.985,244.102 289.353,244.279 289.044 C 244.455 288.735,245.320 288.070,246.200 287.565 C 247.080 287.061,248.391 286.142,249.114 285.524 C 249.837 284.906,250.596 284.400,250.801 284.400 C 251.006 284.400,252.085 283.590,253.200 282.600 C 254.315 281.610,255.371 280.800,255.546 280.800 C 255.981 280.800,261.445 275.411,265.600 270.884 C 272.441 263.432,273.495 262.400,274.265 262.400 C 274.695 262.400,275.396 262.136,275.824 261.813 C 276.251 261.490,277.275 261.220,278.100 261.213 C 279.341 261.202,279.600 261.059,279.600 260.381 C 279.600 259.518,281.443 257.634,282.308 257.613 C 282.613 257.605,282.752 257.240,282.657 256.700 C 282.351 254.967,282.990 254.108,284.427 254.319 C 285.499 254.476,285.684 254.396,285.481 253.868 C 285.346 253.514,285.407 253.119,285.617 252.989 C 285.828 252.859,286.000 252.167,286.000 251.451 C 286.000 250.260,288.351 247.132,288.425 248.225 C 288.439 248.431,288.606 248.216,288.795 247.747 C 288.985 247.277,289.089 246.435,289.028 245.875 C 288.941 245.086,289.133 244.803,289.885 244.615 C 290.751 244.397,292.105 242.234,291.955 241.307 C 291.928 241.138,291.927 239.790,291.953 238.310 L 292.000 235.620 293.143 235.849 C 294.092 236.038,294.338 235.918,294.589 235.139 C 294.756 234.622,294.939 234.065,294.996 233.900 C 295.053 233.735,295.123 232.700,295.150 231.600 C 295.198 229.675,295.243 229.600,296.351 229.600 C 297.642 229.600,298.496 228.811,298.383 227.724 C 297.942 223.485,298.428 219.713,299.400 219.820 C 299.950 219.880,300.400 219.755,300.400 219.541 C 300.400 219.328,300.611 219.283,300.868 219.442 C 301.183 219.636,301.252 219.513,301.081 219.066 C 300.940 218.700,300.983 218.400,301.177 218.400 C 301.370 218.400,301.547 216.383,301.570 213.919 C 301.607 210.029,301.718 209.326,302.410 208.589 C 302.849 208.123,303.091 207.625,302.950 207.483 C 302.808 207.341,303.058 207.296,303.505 207.382 C 304.624 207.597,304.742 206.371,304.777 194.264 L 304.805 184.328 306.151 183.136 L 307.497 181.944 307.568 168.394 L 307.638 154.843 306.119 154.591 C 305.284 154.452,303.803 154.082,302.829 153.769 C 300.259 152.944,99.467 152.973,97.000 153.799 M94.202 307.198 C 93.803 307.639,93.662 308.000,93.889 308.000 C 94.392 308.000,95.390 306.857,95.121 306.588 C 95.015 306.482,94.602 306.756,94.202 307.198 M304.800 306.689 C 304.800 307.192,305.943 308.190,306.212 307.921 C 306.318 307.815,306.044 307.402,305.602 307.002 C 305.161 306.603,304.800 306.462,304.800 306.689 M84.511 309.300 C 83.520 310.581,83.578 310.908,84.635 310.000 C 85.276 309.450,85.875 308.955,85.967 308.900 C 86.058 308.845,85.855 308.800,85.516 308.800 C 85.176 308.800,84.724 309.025,84.511 309.300 M314.000 308.857 C 314.110 308.935,314.732 309.450,315.382 310.000 L 316.563 311.000 315.934 310.000 C 315.588 309.450,314.966 308.935,314.552 308.857 C 314.138 308.778,313.890 308.778,314.000 308.857 M37.722 328.166 C 37.105 328.697,36.690 329.217,36.800 329.320 C 36.910 329.424,37.506 328.989,38.125 328.354 C 39.494 326.950,39.261 326.842,37.722 328.166 M361.817 328.296 C 362.468 328.963,363.071 329.443,363.157 329.364 C 363.403 329.138,362.352 328.002,361.450 327.520 C 360.889 327.219,361.003 327.461,361.817 328.296 M19.300 336.796 C 18.585 337.232,18.000 337.771,18.000 337.994 C 18.000 338.217,18.331 338.085,18.735 337.700 C 19.139 337.315,19.814 336.786,20.235 336.524 C 20.656 336.261,20.910 336.037,20.800 336.025 C 20.690 336.013,20.015 336.360,19.300 336.796 M379.765 336.479 C 380.186 336.766,380.883 337.338,381.315 337.750 C 381.784 338.198,382.027 338.280,381.918 337.954 C 381.818 337.653,381.120 337.081,380.368 336.683 C 379.616 336.284,379.344 336.192,379.765 336.479 " stroke="none" fill="#fbbb84" fill-rule="evenodd"></path><path id="path2" d="M167.848 17.947 C 167.170 18.696,167.175 18.738,167.972 18.991 C 168.864 19.274,168.235 20.400,167.186 20.400 C 166.927 20.400,166.820 20.675,166.949 21.011 C 167.078 21.347,166.872 22.472,166.492 23.511 C 165.598 25.953,165.444 48.959,166.309 51.004 C 167.482 53.780,172.115 55.236,175.298 53.828 C 178.788 52.284,179.384 49.485,179.101 35.965 C 178.835 23.270,178.637 22.746,173.600 21.388 C 170.820 20.638,169.858 19.878,170.225 18.721 C 170.351 18.324,170.262 18.000,170.027 18.000 C 169.792 18.000,169.594 18.225,169.586 18.500 C 169.578 18.775,169.343 18.588,169.063 18.083 C 168.560 17.177,168.546 17.176,167.848 17.947 M230.890 18.095 C 230.650 18.593,230.442 18.775,230.427 18.500 C 230.412 18.225,230.208 18.000,229.973 18.000 C 229.738 18.000,229.649 18.324,229.775 18.721 C 230.142 19.878,229.180 20.638,226.400 21.388 C 221.363 22.746,221.165 23.270,220.899 35.965 C 220.616 49.485,221.212 52.284,224.702 53.828 C 227.885 55.236,232.518 53.780,233.691 51.004 C 234.556 48.959,234.402 25.953,233.508 23.511 C 233.128 22.472,232.922 21.347,233.051 21.011 C 233.180 20.675,233.079 20.400,232.826 20.400 C 231.771 20.400,231.242 19.422,232.058 18.977 C 232.817 18.563,232.817 18.540,232.080 17.872 C 231.365 17.226,231.304 17.237,230.890 18.095 M136.466 29.951 C 136.172 30.137,135.967 30.630,136.012 31.045 C 136.175 32.578,135.996 32.800,134.600 32.800 C 133.774 32.800,133.179 33.005,133.149 33.300 C 133.122 33.575,133.077 34.250,133.049 34.800 C 133.004 35.722,132.830 35.810,130.812 35.924 C 129.609 35.992,128.359 36.262,128.035 36.524 C 127.574 36.897,127.512 36.892,127.747 36.500 C 127.914 36.222,127.854 36.000,127.611 36.000 C 127.093 36.000,126.737 36.819,126.658 38.198 C 126.602 39.169,125.877 39.461,124.100 39.230 C 123.783 39.189,123.600 39.675,123.600 40.556 C 123.600 42.062,123.074 42.423,120.786 42.488 C 120.118 42.507,119.490 42.655,119.390 42.816 C 119.290 42.978,119.516 43.085,119.892 43.055 C 120.395 43.015,120.579 43.318,120.588 44.200 C 120.600 45.366,120.547 45.399,118.742 45.378 C 117.450 45.362,116.941 45.502,117.070 45.837 C 117.171 46.102,117.062 46.438,116.827 46.583 C 116.592 46.728,116.400 46.569,116.400 46.228 C 116.400 45.528,114.546 45.482,114.514 46.182 C 114.504 46.412,114.353 46.945,114.180 47.366 C 113.933 47.964,113.988 48.057,114.432 47.789 C 114.874 47.522,114.907 47.574,114.579 48.023 C 114.348 48.340,114.106 49.230,114.041 50.000 C 113.898 51.704,114.069 51.543,112.274 51.664 C 111.195 51.737,110.837 51.918,110.989 52.314 C 111.474 53.579,110.756 54.809,109.584 54.720 C 108.961 54.673,108.546 54.447,108.657 54.217 C 108.768 53.988,108.588 54.133,108.256 54.540 C 107.925 54.947,107.472 55.168,107.250 55.031 C 107.011 54.883,106.878 55.232,106.923 55.891 C 106.991 56.871,106.871 56.991,105.891 56.923 C 105.281 56.881,104.880 57.005,104.999 57.199 C 105.734 58.387,104.692 60.685,103.259 61.040 C 101.996 61.352,101.783 61.574,101.675 62.700 C 101.606 63.415,101.370 64.000,101.151 64.000 C 100.932 64.000,100.893 64.225,101.065 64.500 C 101.236 64.775,101.428 65.360,101.490 65.800 C 101.568 66.355,101.499 66.441,101.266 66.081 C 100.997 65.666,100.826 65.686,100.416 66.181 C 99.997 66.685,99.998 66.800,100.418 66.800 C 100.701 66.800,100.818 66.916,100.676 67.057 C 100.535 67.198,100.134 67.077,99.784 66.787 C 99.210 66.310,99.209 66.227,99.775 65.910 C 100.119 65.718,100.400 65.381,100.400 65.161 C 100.400 64.942,99.969 65.086,99.442 65.481 C 98.216 66.401,98.004 69.927,99.116 70.909 C 101.146 72.705,105.835 74.151,112.400 75.005 C 114.930 75.334,118.530 76.045,120.400 76.585 C 122.270 77.124,126.013 77.846,128.717 78.189 C 131.421 78.532,134.661 79.161,135.917 79.586 C 141.035 81.320,148.566 82.043,149.936 80.933 L 150.872 80.174 150.067 74.578 C 149.624 71.500,148.892 67.906,148.439 66.591 C 147.987 65.276,147.263 61.770,146.830 58.800 C 146.398 55.830,145.678 52.348,145.231 51.063 C 144.783 49.777,144.133 46.627,143.787 44.063 C 142.934 37.758,142.129 34.989,140.779 33.715 C 139.894 32.881,139.695 32.369,139.774 31.137 C 139.880 29.460,139.216 29.135,137.525 30.040 C 136.928 30.360,136.778 30.360,136.975 30.040 C 137.299 29.516,137.183 29.496,136.466 29.951 M260.226 31.137 C 260.305 32.369,260.106 32.881,259.221 33.715 C 257.871 34.989,257.066 37.758,256.213 44.063 C 255.867 46.627,255.217 49.777,254.769 51.063 C 254.322 52.348,253.602 55.830,253.170 58.800 C 252.737 61.770,252.013 65.276,251.561 66.591 C 251.108 67.906,250.376 71.500,249.933 74.578 L 249.128 80.174 250.064 80.933 C 251.434 82.043,258.965 81.320,264.083 79.586 C 265.339 79.161,268.579 78.532,271.283 78.189 C 273.987 77.846,277.730 77.124,279.600 76.585 C 281.470 76.045,285.070 75.334,287.600 75.005 C 294.165 74.151,298.854 72.705,300.884 70.909 C 301.996 69.927,301.784 66.401,300.558 65.481 C 300.031 65.086,299.600 64.942,299.600 65.161 C 299.600 65.381,299.881 65.718,300.225 65.910 C 300.791 66.227,300.790 66.310,300.216 66.787 C 299.866 67.077,299.465 67.198,299.324 67.057 C 299.182 66.916,299.299 66.800,299.582 66.800 C 300.002 66.800,300.003 66.685,299.584 66.181 C 299.174 65.686,299.003 65.666,298.734 66.081 C 298.501 66.441,298.432 66.355,298.510 65.800 C 298.572 65.360,298.764 64.775,298.935 64.500 C 299.107 64.225,299.068 64.000,298.849 64.000 C 298.630 64.000,298.394 63.415,298.325 62.700 C 298.217 61.574,298.004 61.352,296.741 61.040 C 295.308 60.685,294.266 58.387,295.001 57.199 C 295.120 57.005,294.719 56.881,294.109 56.923 C 293.129 56.991,293.009 56.871,293.077 55.891 C 293.122 55.232,292.989 54.883,292.750 55.031 C 292.528 55.168,292.075 54.947,291.744 54.540 C 291.412 54.133,291.232 53.988,291.343 54.217 C 291.454 54.447,291.039 54.673,290.416 54.720 C 289.244 54.809,288.526 53.579,289.011 52.314 C 289.163 51.918,288.805 51.737,287.726 51.664 C 285.931 51.543,286.102 51.704,285.959 50.000 C 285.894 49.230,285.652 48.340,285.421 48.023 C 285.093 47.574,285.126 47.522,285.568 47.789 C 286.012 48.057,286.067 47.964,285.820 47.366 C 285.647 46.945,285.496 46.412,285.486 46.182 C 285.454 45.482,283.600 45.528,283.600 46.228 C 283.600 46.569,283.408 46.728,283.173 46.583 C 282.938 46.438,282.829 46.102,282.930 45.837 C 283.059 45.502,282.550 45.362,281.258 45.378 C 279.453 45.399,279.400 45.366,279.412 44.200 C 279.421 43.318,279.605 43.015,280.108 43.055 C 280.484 43.085,280.710 42.978,280.610 42.816 C 280.510 42.655,279.882 42.507,279.214 42.488 C 276.926 42.423,276.400 42.062,276.400 40.556 C 276.400 39.675,276.217 39.189,275.900 39.230 C 274.123 39.461,273.398 39.169,273.342 38.198 C 273.263 36.819,272.907 36.000,272.389 36.000 C 272.146 36.000,272.086 36.222,272.253 36.500 C 272.488 36.892,272.426 36.897,271.965 36.524 C 271.641 36.262,270.391 35.992,269.188 35.924 C 267.170 35.810,266.996 35.722,266.951 34.800 C 266.923 34.250,266.878 33.575,266.851 33.300 C 266.821 33.005,266.226 32.800,265.400 32.800 C 263.991 32.800,263.848 32.614,263.978 30.951 C 264.014 30.484,263.755 29.991,263.401 29.856 C 262.996 29.700,262.858 29.770,263.027 30.044 C 263.219 30.355,263.060 30.353,262.475 30.040 C 260.784 29.135,260.120 29.460,260.226 31.137 M130.442 33.749 C 129.905 34.396,130.264 35.600,130.994 35.600 C 131.273 35.600,131.749 35.285,132.051 34.900 C 132.545 34.270,132.532 34.253,131.918 34.734 C 131.190 35.304,130.396 35.063,130.406 34.276 C 130.410 33.941,130.510 33.954,130.741 34.319 C 131.004 34.733,131.176 34.710,131.592 34.210 C 132.039 33.671,132.010 33.621,131.391 33.859 C 130.894 34.050,130.759 33.990,130.958 33.668 C 131.357 33.022,130.998 33.079,130.442 33.749 M269.009 33.568 C 269.254 33.999,269.157 34.069,268.609 33.859 C 267.990 33.621,267.961 33.671,268.408 34.210 C 268.824 34.710,268.996 34.733,269.259 34.319 C 269.490 33.954,269.590 33.941,269.594 34.276 C 269.604 35.063,268.810 35.304,268.082 34.734 C 267.468 34.253,267.455 34.270,267.949 34.900 C 268.251 35.285,268.727 35.600,269.006 35.600 C 269.855 35.600,270.086 34.311,269.358 33.629 C 268.874 33.175,268.777 33.158,269.009 33.568 M112.272 48.900 C 111.548 49.431,111.017 51.200,111.580 51.200 C 111.863 51.200,112.433 50.281,112.572 49.600 C 112.594 49.490,112.755 49.175,112.930 48.900 C 113.104 48.625,113.181 48.400,113.100 48.400 C 113.019 48.400,112.646 48.625,112.272 48.900 M287.046 48.860 C 287.234 49.157,287.406 49.490,287.428 49.600 C 287.564 50.269,288.134 51.200,288.407 51.200 C 288.584 51.200,288.669 50.885,288.595 50.500 C 288.522 50.115,288.447 49.671,288.431 49.514 C 288.414 49.357,288.018 49.024,287.552 48.774 C 286.863 48.406,286.768 48.422,287.046 48.860 M109.600 52.400 C 109.600 52.840,109.409 53.200,109.176 53.200 C 108.943 53.200,108.856 53.032,108.983 52.828 C 109.109 52.623,109.002 52.325,108.745 52.166 C 108.466 51.993,108.383 52.049,108.541 52.304 C 108.686 52.539,108.579 52.807,108.304 52.899 C 107.996 53.001,108.161 53.258,108.731 53.563 C 109.551 54.002,109.684 53.964,109.875 53.234 C 109.994 52.780,110.248 52.506,110.441 52.625 C 110.633 52.744,110.684 52.562,110.553 52.221 C 110.213 51.337,109.600 51.452,109.600 52.400 M289.447 52.221 C 289.316 52.562,289.367 52.744,289.559 52.625 C 289.752 52.506,290.006 52.780,290.125 53.234 C 290.316 53.964,290.449 54.002,291.269 53.563 C 291.839 53.258,292.004 53.001,291.696 52.899 C 291.421 52.807,291.314 52.539,291.459 52.304 C 291.617 52.049,291.534 51.993,291.255 52.166 C 290.998 52.325,290.891 52.623,291.017 52.828 C 291.144 53.032,291.057 53.200,290.824 53.200 C 290.591 53.200,290.400 52.840,290.400 52.400 C 290.400 51.452,289.787 51.337,289.447 52.221 M105.439 55.537 C 105.131 56.035,105.877 56.923,106.355 56.628 C 106.600 56.476,106.800 56.203,106.800 56.019 C 106.800 55.563,105.671 55.162,105.439 55.537 M293.630 55.582 C 293.097 55.911,293.353 56.800,293.981 56.800 C 294.437 56.800,294.838 55.671,294.463 55.439 C 294.298 55.337,293.922 55.401,293.630 55.582 M108.000 56.800 C 108.000 57.892,107.883 57.998,106.700 57.975 C 105.483 57.951,105.460 57.925,106.338 57.574 C 106.853 57.367,107.369 56.838,107.484 56.399 C 107.785 55.248,108.000 55.415,108.000 56.800 M293.691 57.584 C 294.523 57.918,294.489 57.951,293.300 57.975 C 292.090 57.998,292.002 57.910,292.025 56.700 C 292.049 55.511,292.082 55.477,292.416 56.309 C 292.617 56.810,293.190 57.383,293.691 57.584 M86.998 87.202 C 85.975 88.332,86.410 88.437,87.486 87.320 C 87.973 86.814,88.226 86.400,88.048 86.400 C 87.870 86.400,87.397 86.761,86.998 87.202 M312.514 87.320 C 313.001 87.826,313.474 88.187,313.564 88.123 C 313.798 87.955,312.342 86.400,311.952 86.400 C 311.774 86.400,312.027 86.814,312.514 87.320 M87.798 88.002 C 86.775 89.132,87.210 89.237,88.286 88.120 C 88.773 87.614,89.026 87.200,88.848 87.200 C 88.670 87.200,88.197 87.561,87.798 88.002 M311.714 88.120 C 312.201 88.626,312.674 88.987,312.764 88.923 C 312.998 88.755,311.542 87.200,311.152 87.200 C 310.974 87.200,311.227 87.614,311.714 88.120 M61.687 136.338 C 61.175 136.663,60.867 138.442,60.823 141.324 C 60.810 142.162,60.632 142.743,60.426 142.616 C 59.755 142.201,58.202 144.182,58.158 145.508 C 58.135 146.205,58.282 146.673,58.485 146.548 C 58.688 146.422,58.796 146.635,58.727 147.019 C 58.640 147.500,58.881 147.742,59.500 147.793 C 60.671 147.888,60.679 147.902,60.909 149.947 C 61.018 150.908,61.347 151.844,61.641 152.026 C 61.936 152.208,62.049 152.485,61.892 152.641 C 61.451 153.082,62.387 153.980,63.029 153.733 C 63.343 153.613,63.600 153.724,63.600 153.981 C 63.600 154.237,63.768 154.344,63.972 154.217 C 64.177 154.091,64.449 154.156,64.578 154.364 C 64.924 154.924,91.194 154.938,93.306 154.379 C 94.238 154.133,95.450 153.518,96.000 153.014 C 96.550 152.510,97.393 151.896,97.874 151.649 C 99.123 151.007,300.877 151.007,302.126 151.649 C 302.607 151.896,303.450 152.510,304.000 153.014 C 304.550 153.518,305.762 154.133,306.694 154.379 C 308.806 154.938,335.076 154.924,335.422 154.364 C 335.551 154.156,335.823 154.091,336.028 154.217 C 336.232 154.344,336.400 154.237,336.400 153.981 C 336.400 153.724,336.657 153.613,336.971 153.733 C 337.613 153.980,338.549 153.082,338.108 152.641 C 337.951 152.485,338.064 152.208,338.359 152.026 C 338.653 151.844,338.982 150.908,339.091 149.947 C 339.321 147.902,339.329 147.888,340.500 147.793 C 341.119 147.742,341.360 147.500,341.273 147.019 C 341.204 146.635,341.312 146.422,341.515 146.548 C 341.718 146.673,341.865 146.205,341.842 145.508 C 341.798 144.182,340.245 142.201,339.574 142.616 C 339.368 142.743,339.190 142.162,339.177 141.324 C 339.133 138.442,338.825 136.663,338.313 136.338 C 337.102 135.569,320.325 135.953,318.096 136.800 C 314.777 138.061,85.223 138.061,81.904 136.800 C 79.675 135.953,62.898 135.569,61.687 136.338 M96.287 208.413 C 96.509 209.260,97.897 210.237,98.303 209.831 C 98.558 209.576,96.844 207.600,96.368 207.600 C 96.207 207.600,96.171 207.966,96.287 208.413 M302.401 208.598 C 301.351 209.717,301.521 210.285,302.716 209.645 C 303.481 209.235,304.214 207.600,303.632 207.600 C 303.471 207.600,302.917 208.049,302.401 208.598 M111.995 249.191 C 112.454 250.048,114.000 251.045,114.000 250.484 C 114.000 250.077,112.278 248.400,111.860 248.400 C 111.702 248.400,111.762 248.756,111.995 249.191 M286.870 249.326 C 286.391 249.835,286.000 250.381,286.000 250.540 C 286.000 251.058,287.571 250.001,288.005 249.191 C 288.580 248.116,287.934 248.193,286.870 249.326 M118.000 257.881 C 118.000 258.543,119.253 260.000,119.823 260.000 C 120.140 260.000,120.390 259.865,120.378 259.700 C 120.346 259.267,118.000 257.472,118.000 257.881 M280.700 258.615 C 279.455 259.686,279.340 260.000,280.191 260.000 C 280.760 260.000,282.269 258.135,281.954 257.822 C 281.869 257.737,281.305 258.094,280.700 258.615 " stroke="none" fill="#b48424" fill-rule="evenodd"></path><path id="path3" d="M175.200 0.753 C 175.200 1.170,174.843 1.600,174.400 1.716 C 173.787 1.876,173.600 2.262,173.600 3.363 C 173.600 4.763,173.561 4.800,172.062 4.800 L 170.523 4.800 170.437 10.878 C 170.345 17.370,170.293 17.687,169.387 17.340 C 168.714 17.082,168.636 17.527,169.200 18.400 C 169.458 18.800,169.590 18.833,169.594 18.500 C 169.597 18.225,169.792 18.000,170.027 18.000 C 170.262 18.000,170.351 18.324,170.225 18.721 C 169.858 19.878,170.820 20.638,173.600 21.388 C 178.637 22.746,178.835 23.270,179.101 35.965 C 179.384 49.485,178.788 52.284,175.298 53.828 C 172.115 55.236,167.482 53.780,166.309 51.004 C 165.444 48.959,165.598 25.953,166.492 23.511 C 167.601 20.480,167.380 20.313,162.471 20.467 L 158.252 20.600 158.092 22.000 C 158.005 22.770,157.899 23.435,157.856 23.477 C 157.814 23.519,155.842 23.594,153.472 23.643 C 151.103 23.693,149.055 23.911,148.921 24.128 C 148.777 24.361,148.908 24.404,149.238 24.232 C 149.547 24.072,149.485 24.199,149.100 24.514 C 148.715 24.830,148.400 25.428,148.400 25.844 C 148.400 26.421,148.092 26.611,147.100 26.646 C 143.089 26.787,142.601 26.943,142.582 28.085 C 142.559 29.440,142.294 29.708,140.905 29.782 C 139.307 29.867,139.248 32.131,140.803 33.694 C 142.134 35.033,142.947 37.858,143.787 44.063 C 144.133 46.627,144.783 49.777,145.231 51.063 C 145.678 52.348,146.398 55.830,146.830 58.800 C 147.263 61.770,147.987 65.276,148.439 66.591 C 148.892 67.906,149.624 71.500,150.067 74.578 L 150.872 80.174 149.936 80.933 C 148.566 82.043,141.035 81.320,135.917 79.586 C 134.661 79.161,131.421 78.532,128.717 78.189 C 126.013 77.846,122.270 77.124,120.400 76.585 C 118.530 76.045,114.930 75.334,112.400 75.005 C 103.849 73.892,98.422 71.736,98.387 69.438 C 98.376 68.662,98.302 68.683,97.387 69.722 C 96.844 70.340,96.400 70.723,96.400 70.573 C 96.400 70.424,96.132 70.525,95.804 70.797 C 95.465 71.078,95.294 71.660,95.408 72.146 C 95.518 72.616,95.471 73.184,95.304 73.409 C 94.758 74.145,92.800 75.229,92.800 74.796 C 92.800 74.564,93.205 74.211,93.700 74.012 C 94.309 73.768,94.390 73.643,93.949 73.625 C 92.920 73.585,92.522 74.432,92.456 76.800 C 92.368 79.977,92.276 80.268,91.055 81.228 C 90.332 81.797,90.037 82.321,90.199 82.748 C 90.386 83.238,90.333 83.287,89.987 82.943 C 89.371 82.332,90.135 80.883,91.326 80.403 L 92.200 80.051 91.323 80.025 C 89.984 79.987,89.200 81.464,89.200 84.025 C 89.200 86.021,89.091 86.321,88.219 86.718 C 87.400 87.092,85.963 89.077,85.992 89.796 C 86.229 95.776,85.956 98.714,85.182 98.511 C 84.666 98.376,84.137 98.575,83.752 99.049 C 83.416 99.462,83.272 99.547,83.432 99.238 C 83.624 98.869,83.565 98.774,83.262 98.962 C 82.688 99.317,82.652 100.400,83.214 100.400 C 83.500 100.400,83.500 100.640,83.214 101.174 C 82.986 101.599,82.799 104.074,82.797 106.674 L 82.795 111.400 81.597 112.081 C 80.939 112.456,80.400 112.585,80.400 112.369 C 80.400 112.152,80.805 111.811,81.300 111.612 C 81.909 111.368,81.990 111.243,81.549 111.225 C 80.664 111.191,79.931 112.154,80.236 112.949 C 80.373 113.307,80.347 113.915,80.177 114.300 C 80.008 114.685,79.811 119.713,79.741 125.474 L 79.614 135.948 81.822 136.774 L 84.030 137.600 200.000 137.600 L 315.970 137.600 318.178 136.774 L 320.386 135.948 320.259 125.474 C 320.189 119.713,319.992 114.685,319.823 114.300 C 319.653 113.915,319.627 113.307,319.764 112.949 C 320.069 112.154,319.336 111.191,318.451 111.225 C 318.010 111.243,318.091 111.368,318.700 111.612 C 319.195 111.811,319.600 112.152,319.600 112.369 C 319.600 112.585,319.061 112.456,318.403 112.081 L 317.205 111.400 317.203 106.674 C 317.201 104.074,317.014 101.599,316.786 101.174 C 316.500 100.640,316.500 100.400,316.786 100.400 C 317.348 100.400,317.312 99.317,316.738 98.962 C 316.435 98.774,316.376 98.869,316.568 99.238 C 316.728 99.547,316.584 99.462,316.248 99.049 C 315.863 98.575,315.334 98.376,314.818 98.511 C 314.044 98.714,313.771 95.776,314.008 89.796 C 314.037 89.077,312.600 87.092,311.781 86.718 C 310.909 86.321,310.800 86.021,310.800 84.025 C 310.800 81.464,310.016 79.987,308.677 80.025 L 307.800 80.051 308.674 80.403 C 309.865 80.883,310.629 82.332,310.013 82.943 C 309.667 83.287,309.614 83.238,309.801 82.748 C 309.963 82.321,309.668 81.797,308.945 81.228 C 307.724 80.268,307.632 79.977,307.544 76.800 C 307.478 74.432,307.080 73.585,306.051 73.625 C 305.610 73.643,305.691 73.768,306.300 74.012 C 306.795 74.211,307.200 74.564,307.200 74.796 C 307.200 75.229,305.242 74.145,304.696 73.409 C 304.529 73.184,304.482 72.616,304.592 72.146 C 304.706 71.660,304.535 71.078,304.196 70.797 C 303.868 70.525,303.600 70.424,303.600 70.573 C 303.600 70.723,303.156 70.340,302.613 69.722 C 301.698 68.683,301.624 68.662,301.613 69.438 C 301.578 71.736,296.151 73.892,287.600 75.005 C 285.070 75.334,281.470 76.045,279.600 76.585 C 277.730 77.124,273.987 77.846,271.283 78.189 C 268.579 78.532,265.339 79.161,264.083 79.586 C 258.965 81.320,251.434 82.043,250.064 80.933 L 249.128 80.174 249.933 74.578 C 250.376 71.500,251.108 67.906,251.561 66.591 C 252.013 65.276,252.737 61.770,253.170 58.800 C 253.602 55.830,254.322 52.348,254.769 51.063 C 255.217 49.777,255.867 46.627,256.213 44.063 C 257.053 37.858,257.866 35.033,259.197 33.694 C 260.752 32.131,260.693 29.867,259.095 29.782 C 257.706 29.708,257.441 29.440,257.418 28.085 C 257.399 26.943,256.911 26.787,252.900 26.646 C 251.908 26.611,251.600 26.421,251.600 25.844 C 251.600 25.428,251.285 24.830,250.900 24.514 C 250.515 24.199,250.453 24.072,250.762 24.232 C 251.092 24.404,251.223 24.361,251.079 24.128 C 250.945 23.911,248.897 23.693,246.528 23.643 C 244.158 23.594,242.186 23.519,242.144 23.477 C 242.101 23.435,241.995 22.770,241.908 22.000 L 241.748 20.600 237.529 20.467 C 232.620 20.313,232.399 20.480,233.508 23.511 C 234.402 25.953,234.556 48.959,233.691 51.004 C 232.518 53.780,227.885 55.236,224.702 53.828 C 221.212 52.284,220.616 49.485,220.899 35.965 C 221.165 23.270,221.363 22.746,226.400 21.388 C 229.180 20.638,230.142 19.878,229.775 18.721 C 229.649 18.324,229.738 18.000,229.973 18.000 C 230.208 18.000,230.403 18.225,230.406 18.500 C 230.410 18.833,230.542 18.800,230.800 18.400 C 231.364 17.527,231.286 17.082,230.613 17.340 C 229.707 17.687,229.655 17.370,229.563 10.878 L 229.477 4.800 227.938 4.800 C 226.439 4.800,226.400 4.763,226.400 3.363 C 226.400 2.262,226.213 1.876,225.600 1.716 C 225.157 1.600,224.800 1.170,224.800 0.753 C 224.800 0.024,224.021 0.000,200.000 0.000 C 175.979 0.000,175.200 0.024,175.200 0.753 M167.965 18.513 C 167.616 18.781,167.331 19.315,167.332 19.700 C 167.334 20.556,167.485 20.572,168.257 19.800 C 168.654 19.403,168.695 19.200,168.380 19.200 C 168.019 19.200,168.024 19.054,168.400 18.600 C 168.997 17.881,168.831 17.848,167.965 18.513 M231.549 18.536 C 231.941 19.011,231.962 19.200,231.620 19.200 C 231.305 19.200,231.346 19.403,231.743 19.800 C 232.512 20.569,232.618 20.555,232.684 19.677 C 232.714 19.279,232.347 18.711,231.869 18.413 C 231.077 17.919,231.049 17.930,231.549 18.536 M132.104 33.111 C 131.119 33.269,129.982 34.628,130.032 35.589 C 130.049 35.925,130.239 35.720,130.453 35.134 C 130.906 33.900,131.836 33.395,132.150 34.214 C 132.269 34.524,131.969 35.064,131.483 35.414 C 130.604 36.046,130.606 36.049,131.800 35.925 C 132.982 35.802,133.767 34.009,132.645 33.994 C 132.400 33.991,132.465 33.820,132.788 33.616 C 133.539 33.141,133.250 32.928,132.104 33.111 M266.800 33.255 C 266.800 33.445,267.025 33.603,267.300 33.606 C 267.622 33.610,267.653 33.717,267.386 33.906 C 266.470 34.557,266.969 35.797,268.200 35.925 C 269.394 36.049,269.396 36.046,268.517 35.414 C 268.031 35.064,267.731 34.524,267.850 34.214 C 268.164 33.395,269.094 33.900,269.547 35.134 C 269.761 35.720,269.951 35.925,269.968 35.589 C 270.020 34.600,268.902 33.313,267.812 33.104 C 267.255 32.998,266.800 33.066,266.800 33.255 M118.042 42.766 C 117.735 42.960,117.590 43.396,117.719 43.734 C 117.849 44.072,117.740 44.427,117.478 44.524 C 116.512 44.880,117.886 45.659,119.249 45.529 C 120.511 45.409,120.601 45.303,120.620 43.929 C 120.637 42.600,120.565 42.498,119.871 42.869 C 119.323 43.162,119.181 43.154,119.375 42.840 C 119.700 42.315,118.830 42.267,118.042 42.766 M279.380 43.929 C 279.399 45.303,279.489 45.409,280.751 45.529 C 282.114 45.659,283.488 44.880,282.522 44.524 C 282.260 44.427,282.151 44.072,282.281 43.734 C 282.410 43.396,282.265 42.960,281.958 42.766 C 281.170 42.267,280.300 42.315,280.625 42.840 C 280.819 43.154,280.677 43.162,280.129 42.869 C 279.435 42.498,279.363 42.600,279.380 43.929 M113.860 48.186 C 113.453 48.494,113.237 48.937,113.381 49.169 C 113.545 49.434,113.386 49.493,112.955 49.327 C 112.536 49.167,112.367 49.223,112.521 49.471 C 112.659 49.696,112.419 50.259,111.986 50.723 C 110.949 51.836,110.969 51.866,112.600 51.676 C 113.825 51.533,114.006 51.368,114.050 50.356 C 114.115 48.864,114.150 48.698,114.530 48.100 C 114.932 47.466,114.786 47.485,113.860 48.186 M285.452 48.070 C 285.851 48.700,285.885 48.855,285.950 50.356 C 285.994 51.368,286.175 51.533,287.400 51.676 C 289.031 51.866,289.051 51.836,288.014 50.723 C 287.581 50.259,287.341 49.696,287.479 49.471 C 287.630 49.228,287.472 49.164,287.086 49.312 C 286.677 49.469,286.508 49.383,286.625 49.079 C 286.727 48.815,286.429 48.360,285.963 48.070 C 285.261 47.631,285.174 47.631,285.452 48.070 M109.856 53.307 C 109.745 53.732,109.462 53.962,109.227 53.817 C 108.992 53.672,108.787 53.788,108.772 54.076 C 108.756 54.364,108.578 54.240,108.375 53.800 C 108.025 53.039,108.012 53.038,108.104 53.774 C 108.200 54.542,110.793 55.260,110.805 54.522 C 110.808 54.345,110.912 53.825,111.035 53.367 C 111.189 52.793,111.071 52.533,110.658 52.533 C 110.328 52.533,109.967 52.881,109.856 53.307 M288.943 53.283 C 289.079 53.787,289.192 54.345,289.195 54.522 C 289.207 55.260,291.800 54.542,291.896 53.774 C 291.988 53.038,291.975 53.039,291.625 53.800 C 291.422 54.240,291.244 54.364,291.228 54.076 C 291.213 53.788,291.018 53.665,290.797 53.802 C 290.575 53.939,290.260 53.725,290.097 53.326 C 289.637 52.201,288.644 52.164,288.943 53.283 M107.484 56.399 C 107.369 56.838,106.853 57.367,106.338 57.574 C 105.460 57.925,105.483 57.951,106.700 57.975 C 107.883 57.998,108.000 57.892,108.000 56.800 C 108.000 55.415,107.785 55.248,107.484 56.399 M292.025 56.700 C 292.002 57.910,292.090 57.998,293.300 57.975 C 294.489 57.951,294.523 57.918,293.691 57.584 C 293.190 57.383,292.617 56.810,292.416 56.309 C 292.082 55.477,292.049 55.511,292.025 56.700 M99.029 64.629 C 98.683 64.974,98.406 65.379,98.413 65.529 C 98.433 65.973,100.435 67.299,100.694 67.039 C 100.826 66.908,100.701 66.800,100.418 66.800 C 99.998 66.800,99.997 66.685,100.416 66.181 C 100.826 65.686,100.997 65.666,101.266 66.081 C 101.499 66.441,101.568 66.355,101.490 65.800 C 101.234 63.983,100.177 63.480,99.029 64.629 M298.935 64.500 C 298.764 64.775,298.572 65.360,298.510 65.800 C 298.432 66.355,298.501 66.441,298.734 66.081 C 299.003 65.666,299.174 65.686,299.584 66.181 C 300.003 66.685,300.002 66.800,299.582 66.800 C 299.299 66.800,299.174 66.908,299.306 67.039 C 299.565 67.299,301.567 65.973,301.587 65.529 C 301.637 64.448,299.488 63.614,298.935 64.500 M89.200 87.538 C 89.200 88.069,87.625 89.358,87.333 89.067 C 87.189 88.923,87.398 88.444,87.798 88.002 C 88.552 87.169,89.200 86.954,89.200 87.538 M312.202 88.002 C 312.602 88.444,312.811 88.923,312.667 89.067 C 312.375 89.358,310.800 88.069,310.800 87.538 C 310.800 86.954,311.448 87.169,312.202 88.002 M97.344 151.969 C 96.653 152.390,95.959 152.942,95.803 153.196 C 95.646 153.449,95.132 153.812,94.659 154.003 L 93.800 154.349 94.650 154.375 C 95.117 154.389,96.265 154.130,97.200 153.800 C 98.694 153.273,111.156 153.200,200.000 153.200 C 288.844 153.200,301.306 153.273,302.800 153.800 C 304.671 154.460,306.950 154.653,305.386 154.019 C 304.938 153.838,304.322 153.387,304.015 153.018 C 302.423 151.100,308.173 151.200,199.920 151.201 C 100.801 151.203,98.573 151.220,97.344 151.969 M61.600 152.352 C 61.600 152.742,63.155 154.198,63.323 153.964 C 63.387 153.874,63.026 153.401,62.520 152.914 C 62.014 152.427,61.600 152.174,61.600 152.352 M337.314 153.080 C 336.827 153.586,336.574 154.000,336.752 154.000 C 337.142 154.000,338.598 152.445,338.364 152.277 C 338.274 152.213,337.801 152.574,337.314 153.080 " stroke="none" fill="#f1b94a" fill-rule="evenodd"></path><path id="path4" d="M119.520 269.462 C 119.146 269.878,118.971 270.430,119.131 270.688 C 119.587 271.426,120.486 270.619,120.335 269.608 C 120.203 268.729,120.183 268.725,119.520 269.462 M279.600 269.695 C 279.600 270.256,279.855 270.812,280.167 270.932 C 281.071 271.279,281.221 270.143,280.373 269.376 C 279.628 268.702,279.600 268.713,279.600 269.695 M116.202 281.998 C 115.803 282.439,115.253 282.800,114.981 282.800 C 114.473 282.800,113.978 283.700,114.028 284.533 C 114.044 284.790,114.197 284.640,114.368 284.200 C 114.540 283.760,114.842 283.397,115.040 283.394 C 115.238 283.391,115.634 283.240,115.919 283.058 C 116.205 282.877,116.687 282.825,116.992 282.941 C 117.379 283.090,117.497 282.904,117.385 282.323 C 117.157 281.136,117.017 281.097,116.202 281.998 M282.769 281.430 C 282.753 281.634,282.680 282.103,282.609 282.472 C 282.523 282.915,282.672 283.070,283.045 282.928 C 283.356 282.808,283.906 282.956,284.267 283.255 C 284.628 283.555,285.023 283.742,285.146 283.670 C 285.268 283.599,285.498 283.869,285.656 284.270 C 285.814 284.672,285.956 284.790,285.972 284.533 C 286.020 283.741,285.537 282.800,285.083 282.800 C 284.846 282.800,284.235 282.409,283.726 281.930 C 283.217 281.452,282.786 281.227,282.769 281.430 M115.395 292.386 C 115.449 292.724,115.774 292.977,116.115 292.950 C 116.459 292.922,116.651 293.122,116.545 293.398 C 116.440 293.672,116.617 293.998,116.938 294.121 C 117.535 294.350,117.564 294.029,117.076 292.586 C 116.754 291.634,115.245 291.454,115.395 292.386 M282.924 292.586 C 282.436 294.029,282.465 294.350,283.062 294.121 C 283.383 293.998,283.560 293.672,283.455 293.398 C 283.349 293.122,283.541 292.922,283.885 292.950 C 284.226 292.977,284.551 292.724,284.605 292.386 C 284.755 291.454,283.246 291.634,282.924 292.586 M114.400 293.725 C 114.400 294.459,115.591 295.216,116.674 295.168 C 117.076 295.151,117.182 295.048,116.910 294.938 C 116.641 294.829,116.312 294.765,116.180 294.796 C 116.048 294.827,115.593 294.453,115.170 293.965 C 114.560 293.262,114.400 293.212,114.400 293.725 M284.823 293.967 C 284.510 294.402,284.143 294.689,284.008 294.605 C 283.873 294.521,283.500 294.618,283.181 294.820 C 282.718 295.113,282.767 295.189,283.424 295.194 C 284.476 295.202,285.758 294.274,285.551 293.654 C 285.451 293.353,285.184 293.468,284.823 293.967 M93.921 306.418 C 92.584 307.755,92.684 308.591,94.035 307.369 C 94.943 306.547,95.780 305.200,95.383 305.200 C 95.249 305.200,94.590 305.748,93.921 306.418 M197.236 306.053 C 196.799 306.523,196.178 308.062,195.856 309.473 C 195.479 311.123,194.911 312.398,194.262 313.047 C 193.404 313.905,192.400 316.830,192.400 318.471 C 192.400 318.709,191.797 319.570,191.060 320.386 C 190.037 321.519,189.653 322.378,189.434 324.027 C 189.211 325.712,188.892 326.406,187.982 327.193 C 187.056 327.992,186.738 328.703,186.440 330.637 C 186.149 332.524,185.791 333.347,184.853 334.285 C 183.942 335.196,183.572 336.016,183.364 337.586 C 183.212 338.734,182.788 339.972,182.423 340.337 C 181.178 341.581,180.469 343.065,180.180 345.033 C 179.975 346.428,179.513 347.422,178.590 348.451 C 177.550 349.613,177.234 350.382,177.011 352.301 C 176.778 354.311,176.547 354.836,175.585 355.548 C 174.813 356.118,174.355 356.889,174.187 357.898 C 174.050 358.724,173.592 360.570,173.171 362.000 C 172.750 363.430,172.137 367.034,171.810 370.009 C 171.437 373.395,170.830 376.536,170.186 378.409 C 169.590 380.144,168.931 383.416,168.617 386.200 C 168.306 388.959,167.654 392.207,167.083 393.840 C 166.537 395.402,165.964 397.427,165.810 398.340 L 165.530 400.000 200.000 400.000 L 234.470 400.000 234.190 398.340 C 234.036 397.427,233.463 395.402,232.917 393.840 C 232.346 392.207,231.694 388.959,231.383 386.200 C 231.069 383.416,230.410 380.144,229.814 378.409 C 229.170 376.536,228.563 373.395,228.190 370.009 C 227.863 367.034,227.250 363.430,226.829 362.000 C 226.408 360.570,225.950 358.724,225.813 357.898 C 225.645 356.889,225.187 356.118,224.415 355.548 C 223.453 354.836,223.222 354.311,222.989 352.301 C 222.766 350.382,222.450 349.613,221.410 348.451 C 220.487 347.422,220.025 346.428,219.820 345.033 C 219.531 343.065,218.822 341.581,217.577 340.337 C 217.212 339.972,216.788 338.734,216.636 337.586 C 216.428 336.016,216.058 335.196,215.147 334.285 C 214.209 333.347,213.851 332.524,213.560 330.637 C 213.262 328.703,212.944 327.992,212.018 327.193 C 211.108 326.406,210.789 325.712,210.566 324.027 C 210.347 322.378,209.963 321.519,208.940 320.386 C 208.203 319.570,207.600 318.709,207.600 318.471 C 207.600 316.830,206.596 313.905,205.738 313.047 C 205.089 312.398,204.521 311.123,204.144 309.473 C 203.366 306.060,202.532 305.200,200.000 305.200 C 198.505 305.200,197.840 305.405,197.236 306.053 M304.733 305.874 C 305.231 306.806,306.745 308.189,306.993 307.940 C 307.288 307.646,306.047 306.054,305.149 305.573 C 304.435 305.190,304.386 305.226,304.733 305.874 M83.755 309.412 C 83.390 309.969,83.191 310.525,83.313 310.647 C 83.435 310.769,83.742 310.483,83.994 310.012 C 84.246 309.540,84.846 308.996,85.326 308.803 L 86.200 308.451 85.309 308.425 C 84.779 308.410,84.150 308.809,83.755 309.412 M314.674 308.803 C 315.154 308.996,315.754 309.540,316.006 310.012 C 316.258 310.483,316.565 310.769,316.687 310.647 C 317.155 310.178,315.558 308.401,314.691 308.425 L 313.800 308.451 314.674 308.803 M58.411 318.187 C 58.143 318.509,58.017 319.004,58.131 319.287 C 58.263 319.617,58.348 319.558,58.368 319.120 C 58.386 318.746,58.715 318.256,59.100 318.032 C 59.485 317.808,59.597 317.619,59.349 317.612 C 59.101 317.605,58.679 317.864,58.411 318.187 M340.900 318.032 C 341.285 318.256,341.614 318.746,341.632 319.120 C 341.652 319.558,341.737 319.617,341.869 319.287 C 342.109 318.691,341.311 317.594,340.651 317.612 C 340.403 317.619,340.515 317.808,340.900 318.032 M38.099 327.082 C 37.604 327.178,37.007 327.613,36.773 328.050 C 36.037 329.426,36.550 329.448,37.937 328.100 C 38.673 327.385,39.213 326.825,39.137 326.854 C 39.062 326.884,38.595 326.987,38.099 327.082 M362.129 328.161 C 363.449 329.448,363.953 329.407,363.238 328.071 C 363.010 327.646,362.382 327.213,361.841 327.110 C 360.888 326.928,360.897 326.961,362.129 328.161 M30.800 330.800 C 30.360 331.240,30.014 331.915,30.032 332.300 C 30.052 332.751,30.203 332.617,30.457 331.925 C 30.673 331.333,31.333 330.673,31.925 330.457 C 32.617 330.203,32.751 330.052,32.300 330.032 C 31.915 330.014,31.240 330.360,30.800 330.800 M368.075 330.457 C 368.667 330.673,369.327 331.333,369.543 331.925 C 369.797 332.617,369.948 332.751,369.968 332.300 C 369.986 331.915,369.640 331.240,369.200 330.800 C 368.760 330.360,368.085 330.014,367.700 330.032 C 367.249 330.052,367.383 330.203,368.075 330.457 M24.480 333.680 C 23.725 334.435,23.920 334.994,24.700 334.314 C 25.085 333.979,25.670 333.605,26.000 333.484 C 26.422 333.329,26.357 333.254,25.780 333.232 C 25.329 333.214,24.744 333.416,24.480 333.680 M374.000 333.484 C 374.330 333.605,374.915 333.979,375.300 334.314 C 375.685 334.650,376.000 334.752,376.000 334.542 C 376.000 333.881,375.073 333.199,374.220 333.232 C 373.643 333.254,373.578 333.329,374.000 333.484 M18.080 336.880 C 17.816 337.144,17.611 337.729,17.625 338.180 C 17.650 338.975,17.661 338.974,18.000 338.134 C 18.192 337.658,18.675 337.078,19.074 336.846 C 19.656 336.508,19.677 336.422,19.180 336.412 C 18.839 336.405,18.344 336.616,18.080 336.880 M380.926 336.846 C 381.325 337.078,381.808 337.658,382.000 338.134 C 382.339 338.974,382.350 338.975,382.375 338.180 C 382.405 337.210,381.688 336.395,380.820 336.412 C 380.323 336.422,380.344 336.508,380.926 336.846 M12.960 340.306 C 12.718 340.468,12.295 341.027,12.020 341.548 C 11.474 342.585,11.877 342.499,13.300 341.277 C 14.387 340.344,14.106 339.541,12.960 340.306 M386.000 340.338 C 386.000 340.691,387.013 341.657,387.940 342.187 C 388.386 342.443,388.393 342.332,387.980 341.548 C 387.293 340.244,386.000 339.454,386.000 340.338 " stroke="none" fill="#344c74" fill-rule="evenodd"></path></g></svg>